<?xml version="1.0" encoding="UTF-8"?>
<svg width="169px" height="26px" viewBox="0 0 169 26" version="1.1" xmlns="http://www.w3.org/2000/svg" xmlns:xlink="http://www.w3.org/1999/xlink">
    <!-- Generator: Sketch 56.3 (81716) - https://sketch.com -->
    <title>cellular_logo</title>
    <desc>Created with Sketch.</desc>
    <g id="Page-1" stroke="none" stroke-width="1" fill="none" fill-rule="evenodd">
        <g id="Artboard-Copy-8" transform="translate(-528.000000, -521.000000)" fill="#343637">
            <g id="Group" transform="translate(115.000000, 516.000000)">
                <g id="cellular_logo" transform="translate(406.000000, 4.000000)">
                    <g id="cellularthingi" stroke-width="1" fill-rule="evenodd" transform="translate(7.722772, 0.965517)">
                        <path d="M14.0652369,22.6209674 L14.4996429,22.6209674 C20.1498161,22.6209674 25.4044731,19.932783 25.4044731,13.2518421 C25.4044731,10.8798169 24.7330057,8.4682718 22.9552511,6.49186145 C21.4141443,4.91023397 18.8461846,3.6056617 14.9344625,3.48710204 C14.8161386,3.48710204 14.6580976,3.52662192 14.5000566,3.52662192 C8.81057992,3.44758215 3.55592291,6.09624658 3.55592291,12.8171234 C3.55592291,15.1891486 4.22739038,17.6006937 6.00514498,19.5771041 C7.54625177,21.1583155 10.1539286,22.4628878 14.0652369,22.6209674 Z M14.4210361,0.482758621 C24.1798621,0.482758621 28.960396,6.05714269 28.960396,13.1332825 C28.960396,18.7467704 26.1553748,21.355915 24.5352475,22.5814475 C23.5079809,23.3722612 20.7029597,25.5862069 14.6183805,25.5862069 L14.4210361,25.5862069 C4.78053395,25.546687 0,19.9723029 0,12.8961632 C0,7.28225919 2.80502122,4.71263454 4.42514851,3.48710204 C5.45241513,2.6967043 8.25743635,0.482758621 14.3420156,0.482758621 L14.4206223,0.482758621 L14.4210361,0.482758621 Z M12.6428678,14.9120934 L16.3568317,14.9120934 L16.3568317,11.1169362 L12.6432815,11.1169362 L12.6432815,14.9120934 L12.6428678,14.9120934 Z" id="Shape" fill-rule="nonzero"></path>
                    </g>
                    <path d="M62.2087596,18.4235587 L62.6565522,21.2404364 C61.3013904,21.8886719 59.6280602,22.4426185 57.176985,22.4426185 C52.0509384,22.4426185 48.1857813,19.166083 48.1857813,14.2041352 C48.1857813,9.03003772 52.2866187,5.96565194 57.3890973,5.96565194 C59.3216758,5.96565194 61.1599822,6.43709591 62.4090878,7.01461476 L62.1616235,9.86685075 C61.1364142,9.37183459 59.498436,8.91217672 57.6719137,8.91217672 C54.2545492,8.91217672 51.4970897,10.7508082 51.4970897,14.180563 C51.4970897,17.4335264 54.042437,19.5668103 57.6129936,19.5668103 C59.4159479,19.5668103 61.0539261,19.1189386 62.2087596,18.4235587 Z M77.9866134,19.4607355 L77.9866134,22.2068966 L65.9551337,22.2068966 L65.9551337,6.20137392 L77.8098531,6.20137392 L77.8098531,8.95932112 L69.1368179,8.95932112 L69.1368179,12.6483702 L76.7257237,12.6483702 L76.7257237,15.4063173 L69.1368179,15.4063173 L69.1368179,19.4607355 L77.9866134,19.4607355 Z M93.3284586,19.4607355 L93.3284586,22.2068966 L81.5326592,22.2068966 L81.5326592,6.20137392 L84.7143434,6.20137392 L84.7143434,19.4607355 L93.3284586,19.4607355 Z M108.128239,19.4607355 L108.128239,22.2068966 L96.3324398,22.2068966 L96.3324398,6.20137392 L99.5141239,6.20137392 L99.5141239,19.4607355 L108.128239,19.4607355 Z M110.378043,16.5259968 L110.378043,6.20137392 L113.547943,6.20137392 L113.547943,16.313847 C113.547943,18.6003502 115.197706,19.5903825 117.35418,19.5903825 C119.652063,19.5903825 121.183985,18.5060614 121.183985,16.313847 L121.183985,6.20137392 L124.353885,6.20137392 L124.353885,16.5259968 C124.353885,20.6982759 121.019009,22.4426185 117.35418,22.4426185 C113.394751,22.4426185 110.378043,20.5568427 110.378043,16.5259968 Z M140.402772,19.4607355 L140.402772,22.2068966 L128.606972,22.2068966 L128.606972,6.20137392 L131.788656,6.20137392 L131.788656,19.4607355 L140.402772,19.4607355 Z M155.037576,22.2068966 L153.859174,19.0717942 L146.435245,19.0717942 L145.245059,22.2068966 L141.851263,22.2068966 L148.308903,6.20137392 L151.961948,6.20137392 L158.431372,22.2068966 L155.037576,22.2068966 Z M150.14721,9.52505388 L147.33083,16.5377829 L152.940021,16.5377829 L150.14721,9.52505388 Z M171.793503,22.1951105 L168.128674,17.4924569 L164.428493,17.4924569 L164.428493,22.2068966 L161.246809,22.2068966 L161.246809,6.20137392 L168.670739,6.20137392 C171.899559,6.20137392 174.51561,8.25215517 174.51561,11.8587015 C174.51561,14.180563 173.219369,16.0074084 171.392846,16.8913658 L175.635092,22.1951105 L171.793503,22.1951105 Z M168.305434,8.95932112 L164.428493,8.95932112 L164.428493,14.7462958 L168.305434,14.7462958 C170.002333,14.7462958 171.239654,13.579472 171.239654,11.8704876 C171.239654,10.0082839 169.978765,8.95932112 168.305434,8.95932112 Z" id="CELLULAR" fill-rule="nonzero"></path>
                </g>
            </g>
        </g>
    </g>
</svg>