<?xml version="1.0" encoding="UTF-8"?>
<svg width="770px" height="195px" viewBox="0 0 770 195" version="1.1" xmlns="http://www.w3.org/2000/svg" xmlns:xlink="http://www.w3.org/1999/xlink">
    <!-- Generator: Sketch 56.3 (81716) - https://sketch.com -->
    <title>Group 7</title>
    <desc>Created with Sketch.</desc>
    <defs>
        <rect id="path-1" x="0" y="0" width="186" height="112"></rect>
        <filter x="-37.6%" y="-44.6%" width="175.3%" height="225.0%" filterUnits="objectBoundingBox" id="filter-2">
            <feOffset dx="0" dy="20" in="SourceAlpha" result="shadowOffsetOuter1"></feOffset>
            <feGaussianBlur stdDeviation="20" in="shadowOffsetOuter1" result="shadowBlurOuter1"></feGaussianBlur>
            <feColorMatrix values="0 0 0 0 0.0323254609   0 0 0 0 0.228715491   0 0 0 0 0.282410553  0 0 0 0.261063156 0" type="matrix" in="shadowBlurOuter1"></feColorMatrix>
        </filter>
        <rect id="path-3" x="0" y="0" width="186" height="112"></rect>
        <filter x="-37.6%" y="-44.6%" width="175.3%" height="225.0%" filterUnits="objectBoundingBox" id="filter-4">
            <feOffset dx="0" dy="20" in="SourceAlpha" result="shadowOffsetOuter1"></feOffset>
            <feGaussianBlur stdDeviation="20" in="shadowOffsetOuter1" result="shadowBlurOuter1"></feGaussianBlur>
            <feColorMatrix values="0 0 0 0 0.0323254609   0 0 0 0 0.228715491   0 0 0 0 0.282410553  0 0 0 0.261063156 0" type="matrix" in="shadowBlurOuter1"></feColorMatrix>
        </filter>
        <rect id="path-5" x="0" y="0" width="288" height="112"></rect>
        <filter x="-24.3%" y="-44.6%" width="148.6%" height="225.0%" filterUnits="objectBoundingBox" id="filter-6">
            <feOffset dx="0" dy="20" in="SourceAlpha" result="shadowOffsetOuter1"></feOffset>
            <feGaussianBlur stdDeviation="20" in="shadowOffsetOuter1" result="shadowBlurOuter1"></feGaussianBlur>
            <feColorMatrix values="0 0 0 0 0.0323254609   0 0 0 0 0.228715491   0 0 0 0 0.282410553  0 0 0 0.261063156 0" type="matrix" in="shadowBlurOuter1"></feColorMatrix>
        </filter>
    </defs>
    <g id="Page-1" stroke="none" stroke-width="1" fill="none" fill-rule="evenodd">
        <g id="Artboard-Copy-10" transform="translate(-126.000000, -254.000000)">
            <g id="Group-7" transform="translate(166.000000, 254.000000)">
                <g id="Group-5" transform="translate(0.000000, 23.000000)">
                    <g id="Rectangle">
                        <use fill="black" fill-opacity="1" filter="url(#filter-2)" xlink:href="#path-1"></use>
                        <use fill="#FFFFFF" fill-rule="evenodd" xlink:href="#path-1"></use>
                    </g>
                    <path d="M28.36,22.29 L33.046,15.228 L33.486,15.228 L35.994,29 L32.804,29 L31.616,21.894 L28.36,26.668 L25.082,21.894 L23.894,29 L20.704,29 L23.19,15.228 L23.652,15.228 L28.36,22.29 Z M47.324,24.424 C47.324,27.416 45.146,29.132 42.396,29.132 C39.646,29.132 37.446,27.416 37.446,24.402 C37.446,21.366 39.646,19.628 42.396,19.628 C45.146,19.628 47.324,21.366 47.324,24.424 Z M44.508,24.424 C44.508,22.796 43.562,21.85 42.374,21.85 C41.23,21.85 40.262,22.796 40.262,24.402 C40.262,26.03 41.23,26.91 42.374,26.91 C43.562,26.91 44.508,26.03 44.508,24.424 Z M55.288,29 L55.288,23.984 C55.288,22.642 54.87,21.916 53.792,21.916 C52.67,21.916 52.032,22.972 52.032,24.688 L52.032,29 L49.216,29 L49.216,19.782 L52.032,19.782 L52.032,21.3 C52.252,20.926 53.11,19.628 54.782,19.628 C57.026,19.628 58.148,20.948 58.148,23.786 L58.148,29 L55.288,29 Z M65.76,29.044 C65.628,29.044 65.254,29.11 64.396,29.11 C61.888,29.11 61.052,27.988 61.052,25.458 L61.052,21.938 L59.336,21.938 L59.886,19.782 L61.052,19.782 L61.052,17.824 L63.89,17.23 L63.89,19.782 L66.046,19.782 L66.046,21.938 L63.89,21.938 L63.89,25.502 C63.89,26.47 64.066,26.822 64.682,26.91 C65.254,26.954 65.804,26.91 66.288,26.866 L65.76,29.044 Z M67.41,24.556 C67.41,21.762 69.148,19.628 72.294,19.628 C74.956,19.628 76.496,20.97 76.826,21.256 L76.826,29 L74.032,29 L74.032,27.372 C73.812,27.79 73.108,29.154 71.348,29.154 C68.906,29.154 67.41,27.306 67.41,24.556 Z M70.27,24.512 C70.27,25.81 70.776,26.844 72.074,26.844 C73.262,26.844 74.032,25.7 74.032,23.478 L74.032,22.268 C73.79,22.114 73.262,21.85 72.404,21.85 C70.974,21.85 70.27,23.082 70.27,24.512 Z M83.162,32.476 C81.27,32.476 79.708,31.552 79.136,31.134 L80.566,29.198 C80.896,29.44 82.018,30.188 83.096,30.188 C84.02,30.188 85.23,29.858 85.23,28.01 L85.23,26.888 C84.988,27.152 84.372,28.296 82.524,28.296 C80.214,28.296 78.718,26.558 78.718,24.05 C78.718,21.586 80.456,19.628 83.558,19.628 C86.176,19.628 87.694,20.926 88.002,21.146 L88.002,27.394 C88.002,31.442 85.758,32.476 83.162,32.476 Z M81.578,24.072 C81.578,25.26 82.084,26.14 83.338,26.14 C84.482,26.14 85.23,25.106 85.23,23.39 L85.23,22.18 C84.988,22.048 84.438,21.828 83.624,21.828 C82.282,21.828 81.578,22.862 81.578,24.072 Z" id="Montag" fill="#262829" fill-rule="nonzero"></path>
                </g>
                <g id="Group-5-Copy-2" transform="translate(504.000000, 23.000000)">
                    <g id="Rectangle">
                        <use fill="black" fill-opacity="1" filter="url(#filter-4)" xlink:href="#path-3"></use>
                        <use fill="#FFFFFF" fill-rule="evenodd" xlink:href="#path-3"></use>
                    </g>
                    <path d="M24.73,22.928 L24.73,29 L21.474,29 L21.474,15.36 L29.46,15.36 L29.46,17.846 L24.73,17.846 L24.73,20.398 L28.008,20.398 L28.008,22.928 L24.73,22.928 Z M36.324,22.202 C34.278,22.136 33.64,23.566 33.64,26.052 L33.64,29 L30.846,29 L30.846,19.782 L33.64,19.782 L33.64,21.3 C34.058,20.046 35.488,19.496 36.698,19.628 C36.632,19.892 36.368,21.96 36.324,22.202 Z M40.35,25.062 C40.46,26.338 41.516,26.932 42.792,26.932 C43.826,26.932 44.508,26.624 45.19,26.118 L46.4,28.054 C45.058,28.956 43.826,29.132 42.704,29.132 C39.558,29.132 37.6,27.284 37.6,24.38 C37.6,21.52 39.58,19.606 42.22,19.606 C44.64,19.606 46.576,21.234 46.576,23.984 C46.576,24.534 46.51,25.062 46.51,25.062 L40.35,25.062 Z M42.308,21.52 C41.34,21.52 40.658,22.136 40.394,23.104 L44.156,23.104 C44.002,22.114 43.32,21.52 42.308,21.52 Z M51.526,16.834 C51.526,17.67 50.822,18.176 49.92,18.176 C49.018,18.176 48.314,17.67 48.314,16.834 C48.314,15.998 49.018,15.514 49.92,15.514 C50.822,15.514 51.526,15.998 51.526,16.834 Z M48.512,29 L48.512,19.782 L51.35,19.782 L51.35,29 L48.512,29 Z M59.138,29.044 C59.006,29.044 58.632,29.11 57.774,29.11 C55.266,29.11 54.43,27.988 54.43,25.458 L54.43,21.938 L52.714,21.938 L53.264,19.782 L54.43,19.782 L54.43,17.824 L57.268,17.23 L57.268,19.782 L59.424,19.782 L59.424,21.938 L57.268,21.938 L57.268,25.502 C57.268,26.47 57.444,26.822 58.06,26.91 C58.632,26.954 59.182,26.91 59.666,26.866 L59.138,29.044 Z M60.788,24.556 C60.788,21.762 62.526,19.628 65.672,19.628 C68.334,19.628 69.874,20.97 70.204,21.256 L70.204,29 L67.41,29 L67.41,27.372 C67.19,27.79 66.486,29.154 64.726,29.154 C62.284,29.154 60.788,27.306 60.788,24.556 Z M63.648,24.512 C63.648,25.81 64.154,26.844 65.452,26.844 C66.64,26.844 67.41,25.7 67.41,23.478 L67.41,22.268 C67.168,22.114 66.64,21.85 65.782,21.85 C64.352,21.85 63.648,23.082 63.648,24.512 Z M76.54,32.476 C74.648,32.476 73.086,31.552 72.514,31.134 L73.944,29.198 C74.274,29.44 75.396,30.188 76.474,30.188 C77.398,30.188 78.608,29.858 78.608,28.01 L78.608,26.888 C78.366,27.152 77.75,28.296 75.902,28.296 C73.592,28.296 72.096,26.558 72.096,24.05 C72.096,21.586 73.834,19.628 76.936,19.628 C79.554,19.628 81.072,20.926 81.38,21.146 L81.38,27.394 C81.38,31.442 79.136,32.476 76.54,32.476 Z M74.956,24.072 C74.956,25.26 75.462,26.14 76.716,26.14 C77.86,26.14 78.608,25.106 78.608,23.39 L78.608,22.18 C78.366,22.048 77.816,21.828 77.002,21.828 C75.66,21.828 74.956,22.862 74.956,24.072 Z" id="Freitag" fill="#262829" fill-rule="nonzero"></path>
                </g>
                <g id="Group-5-Copy" transform="translate(201.000000, 23.000000)">
                    <g id="Rectangle">
                        <use fill="black" fill-opacity="1" filter="url(#filter-6)" xlink:href="#path-5"></use>
                        <use fill="#FFFFFF" fill-rule="evenodd" xlink:href="#path-5"></use>
                    </g>
                    <path d="M36.706,22.18 C36.706,25.92 34.286,29 28.346,29 L24.474,29 L24.474,15.36 L28.346,15.36 C34.286,15.36 36.706,18.418 36.706,22.18 Z M33.472,22.158 C33.472,19.76 31.888,17.846 28.566,17.846 L27.73,17.846 L27.73,26.47 L28.566,26.47 C31.888,26.47 33.472,24.556 33.472,22.158 Z M41.766,16.834 C41.766,17.67 41.062,18.176 40.16,18.176 C39.258,18.176 38.554,17.67 38.554,16.834 C38.554,15.998 39.258,15.514 40.16,15.514 C41.062,15.514 41.766,15.998 41.766,16.834 Z M38.752,29 L38.752,19.782 L41.59,19.782 L41.59,29 L38.752,29 Z M46.298,25.062 C46.408,26.338 47.464,26.932 48.74,26.932 C49.774,26.932 50.456,26.624 51.138,26.118 L52.348,28.054 C51.006,28.956 49.774,29.132 48.652,29.132 C45.506,29.132 43.548,27.284 43.548,24.38 C43.548,21.52 45.528,19.606 48.168,19.606 C50.588,19.606 52.524,21.234 52.524,23.984 C52.524,24.534 52.458,25.062 52.458,25.062 L46.298,25.062 Z M48.256,21.52 C47.288,21.52 46.606,22.136 46.342,23.104 L50.104,23.104 C49.95,22.114 49.268,21.52 48.256,21.52 Z M60.444,29 L60.444,23.984 C60.444,22.642 60.026,21.916 58.948,21.916 C57.826,21.916 57.188,22.972 57.188,24.688 L57.188,29 L54.372,29 L54.372,19.782 L57.188,19.782 L57.188,21.3 C57.408,20.926 58.266,19.628 59.938,19.628 C62.182,19.628 63.304,20.948 63.304,23.786 L63.304,29 L60.444,29 Z M71.51,22.488 C71.114,22.202 69.838,21.718 68.826,21.718 C68.342,21.718 67.88,21.894 67.88,22.334 C67.88,23.61 72.5,23.082 72.5,26.184 C72.5,27.988 70.916,29.154 68.738,29.154 C66.912,29.154 65.262,28.252 64.712,27.9 L66.054,26.03 C66.34,26.228 67.594,26.998 68.716,26.998 C69.376,26.998 69.706,26.668 69.706,26.25 C69.706,24.864 65.152,25.48 65.152,22.334 C65.152,20.618 66.494,19.628 68.694,19.628 C70.344,19.628 71.664,20.244 71.928,20.442 L71.51,22.488 Z M79.562,29.044 C79.43,29.044 79.056,29.11 78.198,29.11 C75.69,29.11 74.854,27.988 74.854,25.458 L74.854,21.938 L73.138,21.938 L73.688,19.782 L74.854,19.782 L74.854,17.824 L77.692,17.23 L77.692,19.782 L79.848,19.782 L79.848,21.938 L77.692,21.938 L77.692,25.502 C77.692,26.47 77.868,26.822 78.484,26.91 C79.056,26.954 79.606,26.91 80.09,26.866 L79.562,29.044 Z M81.212,24.556 C81.212,21.762 82.95,19.628 86.096,19.628 C88.758,19.628 90.298,20.97 90.628,21.256 L90.628,29 L87.834,29 L87.834,27.372 C87.614,27.79 86.91,29.154 85.15,29.154 C82.708,29.154 81.212,27.306 81.212,24.556 Z M84.072,24.512 C84.072,25.81 84.578,26.844 85.876,26.844 C87.064,26.844 87.834,25.7 87.834,23.478 L87.834,22.268 C87.592,22.114 87.064,21.85 86.206,21.85 C84.776,21.85 84.072,23.082 84.072,24.512 Z M96.964,32.476 C95.072,32.476 93.51,31.552 92.938,31.134 L94.368,29.198 C94.698,29.44 95.82,30.188 96.898,30.188 C97.822,30.188 99.032,29.858 99.032,28.01 L99.032,26.888 C98.79,27.152 98.174,28.296 96.326,28.296 C94.016,28.296 92.52,26.558 92.52,24.05 C92.52,21.586 94.258,19.628 97.36,19.628 C99.978,19.628 101.496,20.926 101.804,21.146 L101.804,27.394 C101.804,31.442 99.56,32.476 96.964,32.476 Z M95.38,24.072 C95.38,25.26 95.886,26.14 97.14,26.14 C98.284,26.14 99.032,25.106 99.032,23.39 L99.032,22.18 C98.79,22.048 98.24,21.828 97.426,21.828 C96.084,21.828 95.38,22.862 95.38,24.072 Z M108.294,24.754 L108.294,22.444 L114.014,22.444 L114.014,24.754 L108.294,24.754 Z M133.066,22.18 C133.066,25.92 130.646,29 124.706,29 L120.834,29 L120.834,15.36 L124.706,15.36 C130.646,15.36 133.066,18.418 133.066,22.18 Z M129.832,22.158 C129.832,19.76 128.248,17.846 124.926,17.846 L124.09,17.846 L124.09,26.47 L124.926,26.47 C128.248,26.47 129.832,24.556 129.832,22.158 Z M144.506,24.424 C144.506,27.416 142.328,29.132 139.578,29.132 C136.828,29.132 134.628,27.416 134.628,24.402 C134.628,21.366 136.828,19.628 139.578,19.628 C142.328,19.628 144.506,21.366 144.506,24.424 Z M141.69,24.424 C141.69,22.796 140.744,21.85 139.556,21.85 C138.412,21.85 137.444,22.796 137.444,24.402 C137.444,26.03 138.412,26.91 139.556,26.91 C140.744,26.91 141.69,26.03 141.69,24.424 Z M152.47,29 L152.47,23.984 C152.47,22.642 152.052,21.916 150.974,21.916 C149.852,21.916 149.214,22.972 149.214,24.688 L149.214,29 L146.398,29 L146.398,19.782 L149.214,19.782 L149.214,21.3 C149.434,20.926 150.292,19.628 151.964,19.628 C154.208,19.628 155.33,20.948 155.33,23.786 L155.33,29 L152.47,29 Z M163.58,29 L163.58,23.984 C163.58,22.642 163.162,21.916 162.084,21.916 C160.962,21.916 160.324,22.972 160.324,24.688 L160.324,29 L157.508,29 L157.508,19.782 L160.324,19.782 L160.324,21.3 C160.544,20.926 161.402,19.628 163.074,19.628 C165.318,19.628 166.44,20.948 166.44,23.786 L166.44,29 L163.58,29 Z M170.972,25.062 C171.082,26.338 172.138,26.932 173.414,26.932 C174.448,26.932 175.13,26.624 175.812,26.118 L177.022,28.054 C175.68,28.956 174.448,29.132 173.326,29.132 C170.18,29.132 168.222,27.284 168.222,24.38 C168.222,21.52 170.202,19.606 172.842,19.606 C175.262,19.606 177.198,21.234 177.198,23.984 C177.198,24.534 177.132,25.062 177.132,25.062 L170.972,25.062 Z M172.93,21.52 C171.962,21.52 171.28,22.136 171.016,23.104 L174.778,23.104 C174.624,22.114 173.942,21.52 172.93,21.52 Z M184.524,22.202 C182.478,22.136 181.84,23.566 181.84,26.052 L181.84,29 L179.046,29 L179.046,19.782 L181.84,19.782 L181.84,21.3 C182.258,20.046 183.688,19.496 184.898,19.628 C184.832,19.892 184.568,21.96 184.524,22.202 Z M192.224,22.488 C191.828,22.202 190.552,21.718 189.54,21.718 C189.056,21.718 188.594,21.894 188.594,22.334 C188.594,23.61 193.214,23.082 193.214,26.184 C193.214,27.988 191.63,29.154 189.452,29.154 C187.626,29.154 185.976,28.252 185.426,27.9 L186.768,26.03 C187.054,26.228 188.308,26.998 189.43,26.998 C190.09,26.998 190.42,26.668 190.42,26.25 C190.42,24.864 185.866,25.48 185.866,22.334 C185.866,20.618 187.208,19.628 189.408,19.628 C191.058,19.628 192.378,20.244 192.642,20.442 L192.224,22.488 Z M200.276,29.044 C200.144,29.044 199.77,29.11 198.912,29.11 C196.404,29.11 195.568,27.988 195.568,25.458 L195.568,21.938 L193.852,21.938 L194.402,19.782 L195.568,19.782 L195.568,17.824 L198.406,17.23 L198.406,19.782 L200.562,19.782 L200.562,21.938 L198.406,21.938 L198.406,25.502 C198.406,26.47 198.582,26.822 199.198,26.91 C199.77,26.954 200.32,26.91 200.804,26.866 L200.276,29.044 Z M201.926,24.556 C201.926,21.762 203.664,19.628 206.81,19.628 C209.472,19.628 211.012,20.97 211.342,21.256 L211.342,29 L208.548,29 L208.548,27.372 C208.328,27.79 207.624,29.154 205.864,29.154 C203.422,29.154 201.926,27.306 201.926,24.556 Z M204.786,24.512 C204.786,25.81 205.292,26.844 206.59,26.844 C207.778,26.844 208.548,25.7 208.548,23.478 L208.548,22.268 C208.306,22.114 207.778,21.85 206.92,21.85 C205.49,21.85 204.786,23.082 204.786,24.512 Z M217.678,32.476 C215.786,32.476 214.224,31.552 213.652,31.134 L215.082,29.198 C215.412,29.44 216.534,30.188 217.612,30.188 C218.536,30.188 219.746,29.858 219.746,28.01 L219.746,26.888 C219.504,27.152 218.888,28.296 217.04,28.296 C214.73,28.296 213.234,26.558 213.234,24.05 C213.234,21.586 214.972,19.628 218.074,19.628 C220.692,19.628 222.21,20.926 222.518,21.146 L222.518,27.394 C222.518,31.442 220.274,32.476 217.678,32.476 Z M216.094,24.072 C216.094,25.26 216.6,26.14 217.854,26.14 C218.998,26.14 219.746,25.106 219.746,23.39 L219.746,22.18 C219.504,22.048 218.954,21.828 218.14,21.828 C216.798,21.828 216.094,22.862 216.094,24.072 Z" id="Dienstag-Donnerstag" fill="#262829" fill-rule="nonzero"></path>
                </g>
                <g id="Group-4">
                    <path d="M0,0 L186,0 L186,23 L0,23 L0,0 Z" id="Rectangle" fill="#262829"></path>
                    <path d="M21.12,17 L21.12,7.08 L22.72,7.08 L22.72,17 L21.12,17 Z M29.344,17 L29.344,13.528 C29.344,12.104 28.96,11.432 27.904,11.432 C26.832,11.432 26.16,12.392 26.16,13.608 L26.16,17 L24.72,17 L24.72,10.312 L26.16,10.312 L26.16,11.288 C26.56,10.616 27.312,10.216 28.144,10.216 C30.048,10.216 30.816,11.416 30.816,13.512 L30.816,17 L29.344,17 Z M37.52,15.688 L43.664,15.688 L43.344,17 L35.072,17 L40.592,8.376 L35.968,8.376 L36.288,7.08 L43.008,7.08 L37.52,15.688 Z M46.096,10.312 L46.096,13.8 C46.096,15.224 46.352,15.88 47.488,15.88 C48.592,15.88 49.184,14.92 49.184,13.704 L49.184,10.312 L50.624,10.312 L50.624,17 L49.184,17 L49.184,16.024 C48.784,16.696 48.144,17.096 47.216,17.096 C45.328,17.096 44.624,15.912 44.624,13.816 L44.624,10.312 L46.096,10.312 Z M56.224,12.088 C55.52,11.592 54.928,11.432 54.416,11.432 C53.984,11.432 53.504,11.608 53.504,12.088 C53.504,13.336 56.848,12.728 56.848,15.064 C56.848,16.312 55.872,17.096 54.336,17.096 C53.632,17.096 52.816,16.968 51.824,16.328 C52.08,15.976 52.56,15.288 52.56,15.288 C53.088,15.64 53.76,15.864 54.288,15.864 C55.008,15.864 55.36,15.544 55.36,15.096 C55.36,13.736 52.096,14.456 52.096,12.072 C52.096,10.888 53.056,10.184 54.416,10.184 C55.28,10.184 56,10.504 56.464,10.84 L56.224,12.088 Z M57.84,13.672 C57.84,11.752 59.056,10.216 61.248,10.216 C63.12,10.216 64.16,11.128 64.384,11.304 L64.384,17 L62.96,17 L62.96,15.848 C62.592,16.52 61.904,17.08 60.912,17.08 C58.896,17.08 57.84,15.608 57.84,13.672 Z M59.312,13.72 C59.312,14.904 59.824,15.8 61.072,15.8 C62.224,15.8 62.96,14.776 62.96,13.096 L62.96,11.928 C62.8,11.8 62.288,11.48 61.312,11.48 C59.984,11.48 59.312,12.52 59.312,13.72 Z M74.128,17 L74.128,13.128 C74.128,11.992 73.648,11.432 72.88,11.432 C72.112,11.432 71.568,12.056 71.568,13.064 L71.568,17 L70.128,17 L70.128,12.968 C70.128,11.848 69.6,11.432 68.848,11.432 C68.144,11.432 67.568,11.88 67.568,13.064 L67.568,17 L66.144,17 L66.144,10.312 L67.552,10.312 L67.552,11.064 C67.984,10.392 68.608,10.184 69.232,10.184 C70,10.184 70.64,10.52 71.088,11.288 C71.456,10.648 72.16,10.184 73.04,10.184 C74.448,10.184 75.584,11.016 75.584,13.064 L75.584,17 L74.128,17 Z M85.248,17 L85.248,13.128 C85.248,11.992 84.768,11.432 84,11.432 C83.232,11.432 82.688,12.056 82.688,13.064 L82.688,17 L81.248,17 L81.248,12.968 C81.248,11.848 80.72,11.432 79.968,11.432 C79.264,11.432 78.688,11.88 78.688,13.064 L78.688,17 L77.264,17 L77.264,10.312 L78.672,10.312 L78.672,11.064 C79.104,10.392 79.728,10.184 80.352,10.184 C81.12,10.184 81.76,10.52 82.208,11.288 C82.576,10.648 83.28,10.184 84.16,10.184 C85.568,10.184 86.704,11.016 86.704,13.064 L86.704,17 L85.248,17 Z M89.536,13.96 C89.536,15.224 90.464,15.864 91.616,15.864 C92.544,15.864 93.056,15.464 93.344,15.224 L94.08,16.312 C93.216,16.92 92.528,17.112 91.616,17.112 C89.408,17.112 88.096,15.768 88.096,13.656 C88.096,11.576 89.472,10.2 91.296,10.2 C92.976,10.2 94.304,11.336 94.304,13.288 C94.304,13.592 94.272,13.96 94.272,13.96 L89.536,13.96 Z M91.328,11.384 C90.544,11.384 89.872,11.864 89.616,12.824 L92.976,12.824 C92.88,11.864 92.176,11.384 91.328,11.384 Z M100.368,17 L100.368,13.528 C100.368,12.104 99.984,11.432 98.928,11.432 C97.856,11.432 97.184,12.392 97.184,13.608 L97.184,17 L95.744,17 L95.744,10.312 L97.184,10.312 L97.184,11.288 C97.584,10.616 98.336,10.216 99.168,10.216 C101.072,10.216 101.84,11.416 101.84,13.512 L101.84,17 L100.368,17 Z M103.232,13.672 C103.232,11.752 104.448,10.216 106.64,10.216 C108.512,10.216 109.552,11.128 109.776,11.304 L109.776,17 L108.352,17 L108.352,15.848 C107.984,16.52 107.296,17.08 106.304,17.08 C104.288,17.08 103.232,15.608 103.232,13.672 Z M104.704,13.72 C104.704,14.904 105.216,15.8 106.464,15.8 C107.616,15.8 108.352,14.776 108.352,13.096 L108.352,11.928 C108.192,11.8 107.68,11.48 106.704,11.48 C105.376,11.48 104.704,12.52 104.704,13.72 Z M114.704,11.512 C113.184,11.512 112.976,12.696 112.976,14.104 L112.976,17 L111.536,17 L111.536,10.312 L112.976,10.312 L112.976,11.32 C113.2,10.616 113.92,10.2 114.672,10.2 C114.816,10.2 114.912,10.2 115.056,10.216 C114.96,10.68 114.928,11.048 114.816,11.512 L114.704,11.512 Z M122.608,13.624 C122.608,15.56 121.424,17.08 119.232,17.08 C117.296,17.08 116.256,16.168 116.096,16.024 L116.096,7.24 L117.52,6.936 L117.52,11.592 C117.872,10.824 118.56,10.216 119.632,10.216 C121.584,10.216 122.608,11.688 122.608,13.624 Z M121.152,13.608 C121.152,12.392 120.64,11.496 119.408,11.496 C118.224,11.496 117.52,12.52 117.52,14.2 L117.52,15.384 C117.696,15.496 118.176,15.832 119.184,15.832 C120.48,15.832 121.152,14.776 121.152,13.608 Z M125.232,13.96 C125.232,15.224 126.16,15.864 127.312,15.864 C128.24,15.864 128.752,15.464 129.04,15.224 L129.776,16.312 C128.912,16.92 128.224,17.112 127.312,17.112 C125.104,17.112 123.792,15.768 123.792,13.656 C123.792,11.576 125.168,10.2 126.992,10.2 C128.672,10.2 130,11.336 130,13.288 C130,13.592 129.968,13.96 129.968,13.96 L125.232,13.96 Z M127.024,11.384 C126.24,11.384 125.568,11.864 125.312,12.824 L128.672,12.824 C128.576,11.864 127.872,11.384 127.024,11.384 Z M133.104,8.28 C133.104,8.776 132.72,9.08 132.224,9.08 C131.744,9.08 131.36,8.776 131.36,8.264 C131.36,7.768 131.744,7.48 132.224,7.48 C132.72,7.48 133.104,7.768 133.104,8.28 Z M131.504,17 L131.504,10.312 L132.96,10.312 L132.96,17 L131.504,17 Z M138.192,17.08 L137.456,17.08 C135.792,17.08 135.232,16.296 135.232,14.488 L135.232,11.512 L134.064,11.512 L134.384,10.312 L135.232,10.312 L135.232,8.968 L136.688,8.648 L136.688,10.312 L138.352,10.312 L138.352,11.512 L136.688,11.512 L136.688,14.52 C136.688,15.768 136.992,15.96 138.48,15.848 L138.192,17.08 Z" id="InZusammenarbeit" fill="#FFFFFF" fill-rule="nonzero"></path>
                </g>
                <g id="Group-4-Copy" transform="translate(504.000000, 0.000000)">
                    <path d="M0,0 L186,0 L186,23 L0,23 L0,0 Z" id="Rectangle" fill="#262829"></path>
                    <text id="In-Zusammenarbeit" font-family="Serenity-Medium, Serenity" font-size="16" font-weight="400" fill="#FFFFFF">
                        <tspan x="20" y="17">In Zusammenarbeit</tspan>
                    </text>
                </g>
                <path d="M21.72,82 L20.12,82 L20.12,72.08 L21.72,72.08 L21.72,82 Z M25.576,72.08 L27.544,72.08 L23.752,76.192 L28.552,82 L26.616,82 L21.992,76.176 L25.576,72.08 Z M30.264,78.96 C30.264,80.224 31.192,80.864 32.344,80.864 C33.272,80.864 33.784,80.464 34.072,80.224 L34.808,81.312 C33.944,81.92 33.256,82.112 32.344,82.112 C30.136,82.112 28.824,80.768 28.824,78.656 C28.824,76.576 30.2,75.2 32.024,75.2 C33.704,75.2 35.032,76.336 35.032,78.288 C35.032,78.592 35,78.96 35,78.96 L30.264,78.96 Z M32.056,76.384 C31.272,76.384 30.6,76.864 30.344,77.824 L33.704,77.824 C33.608,76.864 32.904,76.384 32.056,76.384 Z M39.64,76.512 C38.12,76.512 37.912,77.696 37.912,79.104 L37.912,82 L36.472,82 L36.472,75.312 L37.912,75.312 L37.912,76.32 C38.136,75.616 38.856,75.2 39.608,75.2 C39.752,75.2 39.848,75.2 39.992,75.216 C39.896,75.68 39.864,76.048 39.752,76.512 L39.64,76.512 Z M45.656,82 L45.656,78.528 C45.656,77.104 45.272,76.432 44.216,76.432 C43.144,76.432 42.472,77.392 42.472,78.608 L42.472,82 L41.032,82 L41.032,75.312 L42.472,75.312 L42.472,76.288 C42.872,75.616 43.624,75.216 44.456,75.216 C46.36,75.216 47.128,76.416 47.128,78.512 L47.128,82 L45.656,82 Z M50.472,73.28 C50.472,73.776 50.088,74.08 49.592,74.08 C49.112,74.08 48.728,73.776 48.728,73.264 C48.728,72.768 49.112,72.48 49.592,72.48 C50.088,72.48 50.472,72.768 50.472,73.28 Z M48.872,82 L48.872,75.312 L50.328,75.312 L50.328,82 L48.872,82 Z M54.824,82.08 C52.888,82.08 51.864,80.608 51.864,78.672 C51.864,76.752 53.112,75.216 55.064,75.216 C56.088,75.216 56.952,75.728 56.952,75.728 L56.952,72.24 L58.376,71.936 L58.376,82 L56.952,82 L56.952,80.848 C56.584,81.52 55.816,82.08 54.824,82.08 Z M53.32,78.72 C53.32,79.904 53.832,80.8 55.016,80.8 C56.152,80.8 56.952,79.776 56.952,78.096 L56.952,77.104 C56.792,76.976 56.216,76.48 55.256,76.48 C54.024,76.48 53.32,77.52 53.32,78.72 Z M61.288,78.96 C61.288,80.224 62.216,80.864 63.368,80.864 C64.296,80.864 64.808,80.464 65.096,80.224 L65.832,81.312 C64.968,81.92 64.28,82.112 63.368,82.112 C61.16,82.112 59.848,80.768 59.848,78.656 C59.848,76.576 61.224,75.2 63.048,75.2 C64.728,75.2 66.056,76.336 66.056,78.288 C66.056,78.592 66.024,78.96 66.024,78.96 L61.288,78.96 Z M63.08,76.384 C62.296,76.384 61.624,76.864 61.368,77.824 L64.728,77.824 C64.632,76.864 63.928,76.384 63.08,76.384 Z M68.648,78.96 C68.648,80.224 69.576,80.864 70.728,80.864 C71.656,80.864 72.168,80.464 72.456,80.224 L73.192,81.312 C72.328,81.92 71.64,82.112 70.728,82.112 C68.52,82.112 67.208,80.768 67.208,78.656 C67.208,76.576 68.584,75.2 70.408,75.2 C72.088,75.2 73.416,76.336 73.416,78.288 C73.416,78.592 73.384,78.96 73.384,78.96 L68.648,78.96 Z M70.44,76.384 C69.656,76.384 68.984,76.864 68.728,77.824 L72.088,77.824 C71.992,76.864 71.288,76.384 70.44,76.384 Z M79.464,78.96 C79.464,80.224 80.392,80.864 81.544,80.864 C82.472,80.864 82.984,80.464 83.272,80.224 L84.008,81.312 C83.144,81.92 82.456,82.112 81.544,82.112 C79.336,82.112 78.024,80.768 78.024,78.656 C78.024,76.576 79.4,75.2 81.224,75.2 C82.904,75.2 84.232,76.336 84.232,78.288 C84.232,78.592 84.2,78.96 84.2,78.96 L79.464,78.96 Z M81.256,76.384 C80.472,76.384 79.8,76.864 79.544,77.824 L82.904,77.824 C82.808,76.864 82.104,76.384 81.256,76.384 Z M88.84,76.512 C87.32,76.512 87.112,77.696 87.112,79.104 L87.112,82 L85.672,82 L85.672,75.312 L87.112,75.312 L87.112,76.32 C87.336,75.616 88.056,75.2 88.808,75.2 C88.952,75.2 89.048,75.2 89.192,75.216 C89.096,75.68 89.064,76.048 88.952,76.512 L88.84,76.512 Z M89.944,78.672 C89.944,76.752 91.16,75.216 93.352,75.216 C95.224,75.216 96.264,76.128 96.488,76.304 L96.488,82 L95.064,82 L95.064,80.848 C94.696,81.52 94.008,82.08 93.016,82.08 C91,82.08 89.944,80.608 89.944,78.672 Z M91.416,78.72 C91.416,79.904 91.928,80.8 93.176,80.8 C94.328,80.8 95.064,79.776 95.064,78.096 L95.064,76.928 C94.904,76.8 94.392,76.48 93.416,76.48 C92.088,76.48 91.416,77.52 91.416,78.72 Z M101.416,76.512 C99.896,76.512 99.688,77.696 99.688,79.104 L99.688,82 L98.248,82 L98.248,75.312 L99.688,75.312 L99.688,76.32 C99.912,75.616 100.632,75.2 101.384,75.2 C101.528,75.2 101.624,75.2 101.768,75.216 C101.672,75.68 101.64,76.048 101.528,76.512 L101.416,76.512 Z M109.32,78.624 C109.32,80.56 108.136,82.08 105.944,82.08 C104.008,82.08 102.968,81.168 102.808,81.024 L102.808,72.24 L104.232,71.936 L104.232,76.592 C104.584,75.824 105.272,75.216 106.344,75.216 C108.296,75.216 109.32,76.688 109.32,78.624 Z M107.864,78.608 C107.864,77.392 107.352,76.496 106.12,76.496 C104.936,76.496 104.232,77.52 104.232,79.2 L104.232,80.384 C104.408,80.496 104.888,80.832 105.896,80.832 C107.192,80.832 107.864,79.776 107.864,78.608 Z M111.944,78.96 C111.944,80.224 112.872,80.864 114.024,80.864 C114.952,80.864 115.464,80.464 115.752,80.224 L116.488,81.312 C115.624,81.92 114.936,82.112 114.024,82.112 C111.816,82.112 110.504,80.768 110.504,78.656 C110.504,76.576 111.88,75.2 113.704,75.2 C115.384,75.2 116.712,76.336 116.712,78.288 C116.712,78.592 116.68,78.96 116.68,78.96 L111.944,78.96 Z M113.736,76.384 C112.952,76.384 112.28,76.864 112.024,77.824 L115.384,77.824 C115.288,76.864 114.584,76.384 113.736,76.384 Z M119.816,73.28 C119.816,73.776 119.432,74.08 118.936,74.08 C118.456,74.08 118.072,73.776 118.072,73.264 C118.072,72.768 118.456,72.48 118.936,72.48 C119.432,72.48 119.816,72.768 119.816,73.28 Z M118.216,82 L118.216,75.312 L119.672,75.312 L119.672,82 L118.216,82 Z M124.904,82.08 L124.168,82.08 C122.504,82.08 121.944,81.296 121.944,79.488 L121.944,76.512 L120.776,76.512 L121.096,75.312 L121.944,75.312 L121.944,73.968 L123.4,73.648 L123.4,75.312 L125.064,75.312 L125.064,76.512 L123.4,76.512 L123.4,79.52 C123.4,80.768 123.704,80.96 125.192,80.848 L124.904,82.08 Z M127.544,78.96 C127.544,80.224 128.472,80.864 129.624,80.864 C130.552,80.864 131.064,80.464 131.352,80.224 L132.088,81.312 C131.224,81.92 130.536,82.112 129.624,82.112 C127.416,82.112 126.104,80.768 126.104,78.656 C126.104,76.576 127.48,75.2 129.304,75.2 C130.984,75.2 132.312,76.336 132.312,78.288 C132.312,78.592 132.28,78.96 132.28,78.96 L127.544,78.96 Z M129.336,76.384 C128.552,76.384 127.88,76.864 127.624,77.824 L130.984,77.824 C130.888,76.864 130.184,76.384 129.336,76.384 Z M138.376,82 L138.376,78.528 C138.376,77.104 137.992,76.432 136.936,76.432 C135.864,76.432 135.192,77.392 135.192,78.608 L135.192,82 L133.752,82 L133.752,75.312 L135.192,75.312 L135.192,76.288 C135.592,75.616 136.344,75.216 137.176,75.216 C139.08,75.216 139.848,76.416 139.848,78.512 L139.848,82 L138.376,82 Z M28.2,98.264 C28.2,101.272 26.952,103.128 24.12,103.128 C21.304,103.128 20.04,101.256 20.04,98.232 L20.04,93.08 L21.64,93.08 L21.64,98.232 C21.64,100.488 22.296,101.784 24.104,101.784 C25.928,101.784 26.6,100.504 26.6,98.264 L26.6,93.08 L28.2,93.08 L28.2,98.264 Z M38.104,103 L38.104,99.128 C38.104,97.992 37.624,97.432 36.856,97.432 C36.088,97.432 35.544,98.056 35.544,99.064 L35.544,103 L34.104,103 L34.104,98.968 C34.104,97.848 33.576,97.432 32.824,97.432 C32.12,97.432 31.544,97.88 31.544,99.064 L31.544,103 L30.12,103 L30.12,96.312 L31.528,96.312 L31.528,97.064 C31.96,96.392 32.584,96.184 33.208,96.184 C33.976,96.184 34.616,96.52 35.064,97.288 C35.432,96.648 36.136,96.184 37.016,96.184 C38.424,96.184 39.56,97.016 39.56,99.064 L39.56,103 L38.104,103 Z M44.872,94.248 C44.52,94.168 44.28,94.152 44.104,94.152 C43.4,94.152 43.128,94.504 43.128,95.384 L43.128,96.296 L44.6,96.296 L44.6,97.496 L43.128,97.496 L43.128,103 L41.688,103 L41.688,97.496 L40.52,97.496 L40.84,96.296 L41.672,96.296 L41.672,95.384 C41.672,93.496 42.664,92.936 43.928,92.936 C44.2,92.936 44.616,92.968 45.096,93.048 L44.872,94.248 Z M45.688,99.672 C45.688,97.752 46.904,96.216 49.096,96.216 C50.968,96.216 52.008,97.128 52.232,97.304 L52.232,103 L50.808,103 L50.808,101.848 C50.44,102.52 49.752,103.08 48.76,103.08 C46.744,103.08 45.688,101.608 45.688,99.672 Z M47.16,99.72 C47.16,100.904 47.672,101.8 48.92,101.8 C50.072,101.8 50.808,100.776 50.808,99.096 L50.808,97.928 C50.648,97.8 50.136,97.48 49.16,97.48 C47.832,97.48 47.16,98.52 47.16,99.72 Z M58.616,103 L58.616,99.528 C58.616,98.104 58.232,97.432 57.176,97.432 C56.104,97.432 55.432,98.392 55.432,99.608 L55.432,103 L53.992,103 L53.992,96.312 L55.432,96.312 L55.432,97.288 C55.832,96.616 56.584,96.216 57.416,96.216 C59.32,96.216 60.088,97.416 60.088,99.512 L60.088,103 L58.616,103 Z M64.6,105.512 C63.832,105.512 62.776,105.416 61.752,104.664 L62.552,103.592 C63.16,104.008 63.896,104.216 64.472,104.216 C65.304,104.216 66.392,104.104 66.392,102.216 L66.392,101.624 C66.008,102.024 65.432,102.44 64.472,102.44 C62.52,102.44 61.48,101.112 61.48,99.352 C61.48,97.608 62.68,96.216 64.792,96.216 C66.616,96.216 67.608,97.144 67.816,97.304 L67.816,101.992 C67.816,104.936 66.248,105.512 64.6,105.512 Z M62.952,99.4 C62.952,100.408 63.448,101.16 64.632,101.16 C65.704,101.16 66.392,100.296 66.392,98.856 L66.392,97.864 C66.248,97.752 65.768,97.48 64.856,97.48 C63.608,97.48 62.952,98.376 62.952,99.4 Z M75.704,103.08 C73.768,103.08 72.744,101.608 72.744,99.672 C72.744,97.752 73.992,96.216 75.944,96.216 C76.968,96.216 77.832,96.728 77.832,96.728 L77.832,93.24 L79.256,92.936 L79.256,103 L77.832,103 L77.832,101.848 C77.464,102.52 76.696,103.08 75.704,103.08 Z M74.2,99.72 C74.2,100.904 74.712,101.8 75.896,101.8 C77.032,101.8 77.832,100.776 77.832,99.096 L77.832,98.104 C77.672,97.976 77.096,97.48 76.136,97.48 C74.904,97.48 74.2,98.52 74.2,99.72 Z M82.168,99.96 C82.168,101.224 83.096,101.864 84.248,101.864 C85.176,101.864 85.688,101.464 85.976,101.224 L86.712,102.312 C85.848,102.92 85.16,103.112 84.248,103.112 C82.04,103.112 80.728,101.768 80.728,99.656 C80.728,97.576 82.104,96.2 83.928,96.2 C85.608,96.2 86.936,97.336 86.936,99.288 C86.936,99.592 86.904,99.96 86.904,99.96 L82.168,99.96 Z M83.96,97.384 C83.176,97.384 82.504,97.864 82.248,98.824 L85.608,98.824 C85.512,97.864 84.808,97.384 83.96,97.384 Z M92.216,103 L92.216,97.496 L90.104,97.496 L90.104,103 L88.664,103 L88.664,97.496 L87.496,97.496 L87.816,96.312 L88.648,96.312 L88.648,95.08 C88.648,93.192 89.48,92.936 90.536,92.936 C90.776,92.936 91.128,92.968 91.528,93.048 L91.336,94.248 C91.048,94.168 90.84,94.152 90.712,94.152 C90.2,94.152 90.104,94.504 90.104,95.384 L90.104,96.312 L93.672,96.312 L93.672,103 L92.216,103 Z M93.816,94.28 C93.816,94.776 93.432,95.08 92.936,95.08 C92.456,95.08 92.072,94.776 92.072,94.264 C92.072,93.768 92.456,93.48 92.936,93.48 C93.432,93.48 93.816,93.768 93.816,94.28 Z M100.12,103 L100.12,99.528 C100.12,98.104 99.736,97.432 98.68,97.432 C97.608,97.432 96.936,98.392 96.936,99.608 L96.936,103 L95.496,103 L95.496,96.312 L96.936,96.312 L96.936,97.288 C97.336,96.616 98.088,96.216 98.92,96.216 C100.824,96.216 101.592,97.416 101.592,99.512 L101.592,103 L100.12,103 Z M104.936,94.28 C104.936,94.776 104.552,95.08 104.056,95.08 C103.576,95.08 103.192,94.776 103.192,94.264 C103.192,93.768 103.576,93.48 104.056,93.48 C104.552,93.48 104.936,93.768 104.936,94.28 Z M103.336,103 L103.336,96.312 L104.792,96.312 L104.792,103 L103.336,103 Z M107.768,99.96 C107.768,101.224 108.696,101.864 109.848,101.864 C110.776,101.864 111.288,101.464 111.576,101.224 L112.312,102.312 C111.448,102.92 110.76,103.112 109.848,103.112 C107.64,103.112 106.328,101.768 106.328,99.656 C106.328,97.576 107.704,96.2 109.528,96.2 C111.208,96.2 112.536,97.336 112.536,99.288 C112.536,99.592 112.504,99.96 112.504,99.96 L107.768,99.96 Z M109.56,97.384 C108.776,97.384 108.104,97.864 107.848,98.824 L111.208,98.824 C111.112,97.864 110.408,97.384 109.56,97.384 Z M117.144,97.512 C115.624,97.512 115.416,98.696 115.416,100.104 L115.416,103 L113.976,103 L113.976,96.312 L115.416,96.312 L115.416,97.32 C115.64,96.616 116.36,96.2 117.112,96.2 C117.256,96.2 117.352,96.2 117.496,96.216 C117.4,96.68 117.368,97.048 117.256,97.512 L117.144,97.512 Z M119.688,99.96 C119.688,101.224 120.616,101.864 121.768,101.864 C122.696,101.864 123.208,101.464 123.496,101.224 L124.232,102.312 C123.368,102.92 122.68,103.112 121.768,103.112 C119.56,103.112 118.248,101.768 118.248,99.656 C118.248,97.576 119.624,96.2 121.448,96.2 C123.128,96.2 124.456,97.336 124.456,99.288 C124.456,99.592 124.424,99.96 124.424,99.96 L119.688,99.96 Z M121.48,97.384 C120.696,97.384 120.024,97.864 119.768,98.824 L123.128,98.824 C123.032,97.864 122.328,97.384 121.48,97.384 Z M130.52,103 L130.52,99.528 C130.52,98.104 130.136,97.432 129.08,97.432 C128.008,97.432 127.336,98.392 127.336,99.608 L127.336,103 L125.896,103 L125.896,96.312 L127.336,96.312 L127.336,97.288 C127.736,96.616 128.488,96.216 129.32,96.216 C131.224,96.216 131.992,97.416 131.992,99.512 L131.992,103 L130.52,103 Z" id="KernideeerarbeitenUmfangdefnieren" fill="#262829" fill-rule="nonzero"></path>
                <path d="M524.12,74 L524.12,64.08 L529.304,64.08 L529.304,65.376 L525.72,65.376 L525.72,67.872 L528.344,67.872 L528.344,69.184 L525.72,69.184 L525.72,72.688 L530.584,72.688 L530.264,74 L524.12,74 Z M534.632,68.512 C533.112,68.512 532.904,69.696 532.904,71.104 L532.904,74 L531.464,74 L531.464,67.312 L532.904,67.312 L532.904,68.32 C533.128,67.616 533.848,67.2 534.6,67.2 C534.744,67.2 534.84,67.2 534.984,67.216 C534.888,67.68 534.856,68.048 534.744,68.512 L534.632,68.512 Z M538.856,76.512 C538.088,76.512 537.032,76.416 536.008,75.664 L536.808,74.592 C537.416,75.008 538.152,75.216 538.728,75.216 C539.56,75.216 540.648,75.104 540.648,73.216 L540.648,72.624 C540.264,73.024 539.688,73.44 538.728,73.44 C536.776,73.44 535.736,72.112 535.736,70.352 C535.736,68.608 536.936,67.216 539.048,67.216 C540.872,67.216 541.864,68.144 542.072,68.304 L542.072,72.992 C542.072,75.936 540.504,76.512 538.856,76.512 Z M537.208,70.4 C537.208,71.408 537.704,72.16 538.888,72.16 C539.96,72.16 540.648,71.296 540.648,69.856 L540.648,68.864 C540.504,68.752 540.024,68.48 539.112,68.48 C537.864,68.48 537.208,69.376 537.208,70.4 Z M544.984,70.96 C544.984,72.224 545.912,72.864 547.064,72.864 C547.992,72.864 548.504,72.464 548.792,72.224 L549.528,73.312 C548.664,73.92 547.976,74.112 547.064,74.112 C544.856,74.112 543.544,72.768 543.544,70.656 C543.544,68.576 544.92,67.2 546.744,67.2 C548.424,67.2 549.752,68.336 549.752,70.288 C549.752,70.592 549.72,70.96 549.72,70.96 L544.984,70.96 Z M546.776,68.384 C545.992,68.384 545.32,68.864 545.064,69.824 L548.424,69.824 C548.328,68.864 547.624,68.384 546.776,68.384 Z M557.704,70.624 C557.704,72.56 556.52,74.08 554.328,74.08 C552.392,74.08 551.352,73.168 551.192,73.024 L551.192,64.24 L552.616,63.936 L552.616,68.592 C552.968,67.824 553.656,67.216 554.728,67.216 C556.68,67.216 557.704,68.688 557.704,70.624 Z M556.248,70.608 C556.248,69.392 555.736,68.496 554.504,68.496 C553.32,68.496 552.616,69.52 552.616,71.2 L552.616,72.384 C552.792,72.496 553.272,72.832 554.28,72.832 C555.576,72.832 556.248,71.776 556.248,70.608 Z M563.8,74 L563.8,70.528 C563.8,69.104 563.416,68.432 562.36,68.432 C561.288,68.432 560.616,69.392 560.616,70.608 L560.616,74 L559.176,74 L559.176,67.312 L560.616,67.312 L560.616,68.288 C561.016,67.616 561.768,67.216 562.6,67.216 C564.504,67.216 565.272,68.416 565.272,70.512 L565.272,74 L563.8,74 Z M568.616,65.28 C568.616,65.776 568.232,66.08 567.736,66.08 C567.256,66.08 566.872,65.776 566.872,65.264 C566.872,64.768 567.256,64.48 567.736,64.48 C568.232,64.48 568.616,64.768 568.616,65.28 Z M567.016,74 L567.016,67.312 L568.472,67.312 L568.472,74 L567.016,74 Z M574.136,69.088 C573.432,68.592 572.84,68.432 572.328,68.432 C571.896,68.432 571.416,68.608 571.416,69.088 C571.416,70.336 574.76,69.728 574.76,72.064 C574.76,73.312 573.784,74.096 572.248,74.096 C571.544,74.096 570.728,73.968 569.736,73.328 C569.992,72.976 570.472,72.288 570.472,72.288 C571,72.64 571.672,72.864 572.2,72.864 C572.92,72.864 573.272,72.544 573.272,72.096 C573.272,70.736 570.008,71.456 570.008,69.072 C570.008,67.888 570.968,67.184 572.328,67.184 C573.192,67.184 573.912,67.504 574.376,67.84 L574.136,69.088 Z M580.888,67.312 L580.888,70.8 C580.888,72.224 581.144,72.88 582.28,72.88 C583.384,72.88 583.976,71.92 583.976,70.704 L583.976,67.312 L585.416,67.312 L585.416,74 L583.976,74 L583.976,73.024 C583.576,73.696 582.936,74.096 582.008,74.096 C580.12,74.096 579.416,72.912 579.416,70.816 L579.416,67.312 L580.888,67.312 Z M591.8,74 L591.8,70.528 C591.8,69.104 591.416,68.432 590.36,68.432 C589.288,68.432 588.616,69.392 588.616,70.608 L588.616,74 L587.176,74 L587.176,67.312 L588.616,67.312 L588.616,68.288 C589.016,67.616 589.768,67.216 590.6,67.216 C592.504,67.216 593.272,68.416 593.272,70.512 L593.272,74 L591.8,74 Z M597.624,74.08 C595.688,74.08 594.664,72.608 594.664,70.672 C594.664,68.752 595.912,67.216 597.864,67.216 C598.888,67.216 599.752,67.728 599.752,67.728 L599.752,64.24 L601.176,63.936 L601.176,74 L599.752,74 L599.752,72.848 C599.384,73.52 598.616,74.08 597.624,74.08 Z M596.12,70.72 C596.12,71.904 596.632,72.8 597.816,72.8 C598.952,72.8 599.752,71.776 599.752,70.096 L599.752,69.104 C599.592,68.976 599.016,68.48 598.056,68.48 C596.824,68.48 596.12,69.52 596.12,70.72 Z M607.96,72.688 L614.104,72.688 L613.784,74 L605.512,74 L611.032,65.376 L606.408,65.376 L606.728,64.08 L613.448,64.08 L607.96,72.688 Z M616.536,67.312 L616.536,70.8 C616.536,72.224 616.792,72.88 617.928,72.88 C619.032,72.88 619.624,71.92 619.624,70.704 L619.624,67.312 L621.064,67.312 L621.064,74 L619.624,74 L619.624,73.024 C619.224,73.696 618.584,74.096 617.656,74.096 C615.768,74.096 615.064,72.912 615.064,70.816 L615.064,67.312 L616.536,67.312 Z M625.656,76.512 C624.888,76.512 623.832,76.416 622.808,75.664 L623.608,74.592 C624.216,75.008 624.952,75.216 625.528,75.216 C626.36,75.216 627.448,75.104 627.448,73.216 L627.448,72.624 C627.064,73.024 626.488,73.44 625.528,73.44 C623.576,73.44 622.536,72.112 622.536,70.352 C622.536,68.608 623.736,67.216 625.848,67.216 C627.672,67.216 628.664,68.144 628.872,68.304 L628.872,72.992 C628.872,75.936 627.304,76.512 625.656,76.512 Z M624.008,70.4 C624.008,71.408 624.504,72.16 625.688,72.16 C626.76,72.16 627.448,71.296 627.448,69.856 L627.448,68.864 C627.304,68.752 626.824,68.48 625.912,68.48 C624.664,68.48 624.008,69.376 624.008,70.4 Z M630.344,70.672 C630.344,68.752 631.56,67.216 633.752,67.216 C635.624,67.216 636.664,68.128 636.888,68.304 L636.888,74 L635.464,74 L635.464,72.848 C635.096,73.52 634.408,74.08 633.416,74.08 C631.4,74.08 630.344,72.608 630.344,70.672 Z M631.816,70.72 C631.816,71.904 632.328,72.8 633.576,72.8 C634.728,72.8 635.464,71.776 635.464,70.096 L635.464,68.928 C635.304,68.8 634.792,68.48 633.816,68.48 C632.488,68.48 631.816,69.52 631.816,70.72 Z M643.272,74 L643.272,70.528 C643.272,69.104 642.888,68.432 641.832,68.432 C640.76,68.432 640.088,69.392 640.088,70.608 L640.088,74 L638.648,74 L638.648,67.312 L640.088,67.312 L640.088,68.288 C640.488,67.616 641.24,67.216 642.072,67.216 C643.976,67.216 644.744,68.416 644.744,70.512 L644.744,74 L643.272,74 Z M649.256,76.512 C648.488,76.512 647.432,76.416 646.408,75.664 L647.208,74.592 C647.816,75.008 648.552,75.216 649.128,75.216 C649.96,75.216 651.048,75.104 651.048,73.216 L651.048,72.624 C650.664,73.024 650.088,73.44 649.128,73.44 C647.176,73.44 646.136,72.112 646.136,70.352 C646.136,68.608 647.336,67.216 649.448,67.216 C651.272,67.216 652.264,68.144 652.472,68.304 L652.472,72.992 C652.472,75.936 650.904,76.512 649.256,76.512 Z M647.608,70.4 C647.608,71.408 648.104,72.16 649.288,72.16 C650.36,72.16 651.048,71.296 651.048,69.856 L651.048,68.864 C650.904,68.752 650.424,68.48 649.512,68.48 C648.264,68.48 647.608,69.376 647.608,70.4 Z M526.552,94.08 C524.616,94.08 523.592,92.608 523.592,90.672 C523.592,88.752 524.84,87.216 526.792,87.216 C527.816,87.216 528.68,87.728 528.68,87.728 L528.68,84.24 L530.104,83.936 L530.104,94 L528.68,94 L528.68,92.848 C528.312,93.52 527.544,94.08 526.552,94.08 Z M525.048,90.72 C525.048,91.904 525.56,92.8 526.744,92.8 C527.88,92.8 528.68,91.776 528.68,90.096 L528.68,89.104 C528.52,88.976 527.944,88.48 526.984,88.48 C525.752,88.48 525.048,89.52 525.048,90.72 Z M531.576,90.672 C531.576,88.752 532.792,87.216 534.984,87.216 C536.856,87.216 537.896,88.128 538.12,88.304 L538.12,94 L536.696,94 L536.696,92.848 C536.328,93.52 535.64,94.08 534.648,94.08 C532.632,94.08 531.576,92.608 531.576,90.672 Z M533.048,90.72 C533.048,91.904 533.56,92.8 534.808,92.8 C535.96,92.8 536.696,91.776 536.696,90.096 L536.696,88.928 C536.536,88.8 536.024,88.48 535.048,88.48 C533.72,88.48 533.048,89.52 533.048,90.72 Z M541.8,92.672 L545.752,92.672 L545.416,94 L539.32,94 L542.92,88.624 L539.8,88.624 L540.136,87.312 L545.416,87.312 L541.8,92.672 Z M548.184,87.312 L548.184,90.8 C548.184,92.224 548.44,92.88 549.576,92.88 C550.68,92.88 551.272,91.92 551.272,90.704 L551.272,87.312 L552.712,87.312 L552.712,94 L551.272,94 L551.272,93.024 C550.872,93.696 550.232,94.096 549.304,94.096 C547.416,94.096 546.712,92.912 546.712,90.816 L546.712,87.312 L548.184,87.312 Z M560.488,94.128 L557.048,87.312 L558.68,87.312 L560.568,91.44 L562.456,87.312 L564.088,87.312 L560.648,94.128 L560.488,94.128 Z M571.592,90.688 C571.592,92.864 570.072,94.112 568.136,94.112 C566.216,94.112 564.68,92.864 564.68,90.672 C564.68,88.48 566.216,87.216 568.136,87.216 C570.072,87.216 571.592,88.48 571.592,90.688 Z M570.136,90.688 C570.136,89.28 569.256,88.48 568.12,88.48 C567.032,88.48 566.12,89.28 566.12,90.672 C566.12,92.08 567.032,92.848 568.12,92.848 C569.256,92.848 570.136,92.08 570.136,90.688 Z M576.232,88.512 C574.712,88.512 574.504,89.696 574.504,91.104 L574.504,94 L573.064,94 L573.064,87.312 L574.504,87.312 L574.504,88.32 C574.728,87.616 575.448,87.2 576.2,87.2 C576.344,87.2 576.44,87.2 576.584,87.216 C576.488,87.68 576.456,88.048 576.344,88.512 L576.232,88.512 Z M581.464,89.088 C580.76,88.592 580.168,88.432 579.656,88.432 C579.224,88.432 578.744,88.608 578.744,89.088 C578.744,90.336 582.088,89.728 582.088,92.064 C582.088,93.312 581.112,94.096 579.576,94.096 C578.872,94.096 578.056,93.968 577.064,93.328 C577.32,92.976 577.8,92.288 577.8,92.288 C578.328,92.64 579,92.864 579.528,92.864 C580.248,92.864 580.6,92.544 580.6,92.096 C580.6,90.736 577.336,91.456 577.336,89.072 C577.336,87.888 578.296,87.184 579.656,87.184 C580.52,87.184 581.24,87.504 581.704,87.84 L581.464,89.088 Z M586.776,94.08 L586.04,94.08 C584.376,94.08 583.816,93.296 583.816,91.488 L583.816,88.512 L582.648,88.512 L582.968,87.312 L583.816,87.312 L583.816,85.968 L585.272,85.648 L585.272,87.312 L586.936,87.312 L586.936,88.512 L585.272,88.512 L585.272,91.52 C585.272,92.768 585.576,92.96 587.064,92.848 L586.776,94.08 Z M589.416,90.96 C589.416,92.224 590.344,92.864 591.496,92.864 C592.424,92.864 592.936,92.464 593.224,92.224 L593.96,93.312 C593.096,93.92 592.408,94.112 591.496,94.112 C589.288,94.112 587.976,92.768 587.976,90.656 C587.976,88.576 589.352,87.2 591.176,87.2 C592.856,87.2 594.184,88.336 594.184,90.288 C594.184,90.592 594.152,90.96 594.152,90.96 L589.416,90.96 Z M591.208,88.384 C590.424,88.384 589.752,88.864 589.496,89.824 L592.856,89.824 C592.76,88.864 592.056,88.384 591.208,88.384 Z M595.624,94 L595.624,84.224 L597.064,83.936 L597.064,94 L595.624,94 Z M598.824,94 L598.824,84.224 L600.264,83.936 L600.264,94 L598.824,94 Z M603.176,90.96 C603.176,92.224 604.104,92.864 605.256,92.864 C606.184,92.864 606.696,92.464 606.984,92.224 L607.72,93.312 C606.856,93.92 606.168,94.112 605.256,94.112 C603.048,94.112 601.736,92.768 601.736,90.656 C601.736,88.576 603.112,87.2 604.936,87.2 C606.616,87.2 607.944,88.336 607.944,90.288 C607.944,90.592 607.912,90.96 607.912,90.96 L603.176,90.96 Z M604.968,88.384 C604.184,88.384 603.512,88.864 603.256,89.824 L606.616,89.824 C606.52,88.864 605.816,88.384 604.968,88.384 Z M614.008,94 L614.008,90.528 C614.008,89.104 613.624,88.432 612.568,88.432 C611.496,88.432 610.824,89.392 610.824,90.608 L610.824,94 L609.384,94 L609.384,87.312 L610.824,87.312 L610.824,88.288 C611.224,87.616 611.976,87.216 612.808,87.216 C614.712,87.216 615.48,88.416 615.48,90.512 L615.48,94 L614.008,94 Z M627.096,93.232 C626.36,93.792 625.432,94.128 624.344,94.128 C622.104,94.128 620.296,92.784 620.296,90.8 C620.296,88.928 621.592,87.888 623.56,87.76 L621.304,84.256 L621.368,84.08 L626.552,84.08 L626.872,85.376 L623.656,85.376 L627.256,91.008 C627.496,90.448 627.576,89.808 627.496,89.088 L628.888,89.088 C629.016,90.176 628.712,91.328 628.056,92.256 L629.096,93.872 L627.672,94.128 L627.096,93.232 Z M624.36,92.816 C625.16,92.816 625.848,92.576 626.392,92.144 L624.28,88.864 C622.808,88.896 621.912,89.648 621.912,90.864 C621.912,91.872 622.92,92.816 624.36,92.816 Z M526.28,105.68 C526.28,106.16 525.848,106.464 525.304,106.464 C524.776,106.464 524.36,106.16 524.36,105.664 C524.36,105.152 524.776,104.88 525.304,104.88 C525.848,104.88 526.28,105.152 526.28,105.68 Z M528.952,105.68 C528.952,106.16 528.52,106.464 527.976,106.464 C527.448,106.464 527.032,106.16 527.032,105.664 C527.032,105.152 527.448,104.88 527.976,104.88 C528.52,104.88 528.952,105.152 528.952,105.68 Z M525.272,107.312 L525.272,110.8 C525.272,112.224 525.528,112.88 526.664,112.88 C527.768,112.88 528.36,111.92 528.36,110.704 L528.36,107.312 L529.8,107.312 L529.8,114 L528.36,114 L528.36,113.024 C527.96,113.696 527.32,114.096 526.392,114.096 C524.504,114.096 523.8,112.912 523.8,110.816 L523.8,107.312 L525.272,107.312 Z M538.072,110.624 C538.072,112.56 536.888,114.08 534.696,114.08 C532.76,114.08 531.72,113.168 531.56,113.024 L531.56,104.24 L532.984,103.936 L532.984,108.592 C533.336,107.824 534.024,107.216 535.096,107.216 C537.048,107.216 538.072,108.688 538.072,110.624 Z M536.616,110.608 C536.616,109.392 536.104,108.496 534.872,108.496 C533.688,108.496 532.984,109.52 532.984,111.2 L532.984,112.384 C533.16,112.496 533.64,112.832 534.648,112.832 C535.944,112.832 536.616,111.776 536.616,110.608 Z M540.696,110.96 C540.696,112.224 541.624,112.864 542.776,112.864 C543.704,112.864 544.216,112.464 544.504,112.224 L545.24,113.312 C544.376,113.92 543.688,114.112 542.776,114.112 C540.568,114.112 539.256,112.768 539.256,110.656 C539.256,108.576 540.632,107.2 542.456,107.2 C544.136,107.2 545.464,108.336 545.464,110.288 C545.464,110.592 545.432,110.96 545.432,110.96 L540.696,110.96 Z M542.488,108.384 C541.704,108.384 541.032,108.864 540.776,109.824 L544.136,109.824 C544.04,108.864 543.336,108.384 542.488,108.384 Z M550.072,108.512 C548.552,108.512 548.344,109.696 548.344,111.104 L548.344,114 L546.904,114 L546.904,107.312 L548.344,107.312 L548.344,108.32 C548.568,107.616 549.288,107.2 550.04,107.2 C550.184,107.2 550.28,107.2 550.424,107.216 C550.328,107.68 550.296,108.048 550.184,108.512 L550.072,108.512 Z M554.296,116.512 C553.528,116.512 552.472,116.416 551.448,115.664 L552.248,114.592 C552.856,115.008 553.592,115.216 554.168,115.216 C555,115.216 556.088,115.104 556.088,113.216 L556.088,112.624 C555.704,113.024 555.128,113.44 554.168,113.44 C552.216,113.44 551.176,112.112 551.176,110.352 C551.176,108.608 552.376,107.216 554.488,107.216 C556.312,107.216 557.304,108.144 557.512,108.304 L557.512,112.992 C557.512,115.936 555.944,116.512 554.296,116.512 Z M552.648,110.4 C552.648,111.408 553.144,112.16 554.328,112.16 C555.4,112.16 556.088,111.296 556.088,109.856 L556.088,108.864 C555.944,108.752 555.464,108.48 554.552,108.48 C553.304,108.48 552.648,109.376 552.648,110.4 Z M560.424,110.96 C560.424,112.224 561.352,112.864 562.504,112.864 C563.432,112.864 563.944,112.464 564.232,112.224 L564.968,113.312 C564.104,113.92 563.416,114.112 562.504,114.112 C560.296,114.112 558.984,112.768 558.984,110.656 C558.984,108.576 560.36,107.2 562.184,107.2 C563.864,107.2 565.192,108.336 565.192,110.288 C565.192,110.592 565.16,110.96 565.16,110.96 L560.424,110.96 Z M562.216,108.384 C561.432,108.384 560.76,108.864 560.504,109.824 L563.864,109.824 C563.768,108.864 563.064,108.384 562.216,108.384 Z M573.144,110.624 C573.144,112.56 571.96,114.08 569.768,114.08 C567.832,114.08 566.792,113.168 566.632,113.024 L566.632,104.24 L568.056,103.936 L568.056,108.592 C568.408,107.824 569.096,107.216 570.168,107.216 C572.12,107.216 573.144,108.688 573.144,110.624 Z M571.688,110.608 C571.688,109.392 571.176,108.496 569.944,108.496 C568.76,108.496 568.056,109.52 568.056,111.2 L568.056,112.384 C568.232,112.496 568.712,112.832 569.72,112.832 C571.016,112.832 571.688,111.776 571.688,110.608 Z M575.768,110.96 C575.768,112.224 576.696,112.864 577.848,112.864 C578.776,112.864 579.288,112.464 579.576,112.224 L580.312,113.312 C579.448,113.92 578.76,114.112 577.848,114.112 C575.64,114.112 574.328,112.768 574.328,110.656 C574.328,108.576 575.704,107.2 577.528,107.2 C579.208,107.2 580.536,108.336 580.536,110.288 C580.536,110.592 580.504,110.96 580.504,110.96 L575.768,110.96 Z M577.56,108.384 C576.776,108.384 576.104,108.864 575.848,109.824 L579.208,109.824 C579.112,108.864 578.408,108.384 577.56,108.384 Z M586.6,114 L586.6,110.528 C586.6,109.104 586.216,108.432 585.16,108.432 C584.088,108.432 583.416,109.392 583.416,110.608 L583.416,114 L581.976,114 L581.976,107.312 L583.416,107.312 L583.416,108.288 C583.816,107.616 584.568,107.216 585.4,107.216 C587.304,107.216 588.072,108.416 588.072,110.512 L588.072,114 L586.6,114 Z" id="ErgebnisundZugangdazuvorstellen&amp;bergeben" fill="#262829" fill-rule="nonzero"></path>
                <path d="M226.12,72 L226.12,62.08 L227.72,62.08 L227.72,72 L226.12,72 Z M234.344,72 L234.344,68.528 C234.344,67.104 233.96,66.432 232.904,66.432 C231.832,66.432 231.16,67.392 231.16,68.608 L231.16,72 L229.72,72 L229.72,65.312 L231.16,65.312 L231.16,66.288 C231.56,65.616 232.312,65.216 233.144,65.216 C235.048,65.216 235.816,66.416 235.816,68.512 L235.816,72 L234.344,72 Z M240.904,72.08 L240.168,72.08 C238.504,72.08 237.944,71.296 237.944,69.488 L237.944,66.512 L236.776,66.512 L237.096,65.312 L237.944,65.312 L237.944,63.968 L239.4,63.648 L239.4,65.312 L241.064,65.312 L241.064,66.512 L239.4,66.512 L239.4,69.52 C239.4,70.768 239.704,70.96 241.192,70.848 L240.904,72.08 Z M243.544,68.96 C243.544,70.224 244.472,70.864 245.624,70.864 C246.552,70.864 247.064,70.464 247.352,70.224 L248.088,71.312 C247.224,71.92 246.536,72.112 245.624,72.112 C243.416,72.112 242.104,70.768 242.104,68.656 C242.104,66.576 243.48,65.2 245.304,65.2 C246.984,65.2 248.312,66.336 248.312,68.288 C248.312,68.592 248.28,68.96 248.28,68.96 L243.544,68.96 Z M245.336,66.384 C244.552,66.384 243.88,66.864 243.624,67.824 L246.984,67.824 C246.888,66.864 246.184,66.384 245.336,66.384 Z M252.92,66.512 C251.4,66.512 251.192,67.696 251.192,69.104 L251.192,72 L249.752,72 L249.752,65.312 L251.192,65.312 L251.192,66.32 C251.416,65.616 252.136,65.2 252.888,65.2 C253.032,65.2 253.128,65.2 253.272,65.216 C253.176,65.68 253.144,66.048 253.032,66.512 L252.92,66.512 Z M258.936,72 L258.936,68.528 C258.936,67.104 258.552,66.432 257.496,66.432 C256.424,66.432 255.752,67.392 255.752,68.608 L255.752,72 L254.312,72 L254.312,65.312 L255.752,65.312 L255.752,66.288 C256.152,65.616 256.904,65.216 257.736,65.216 C259.64,65.216 260.408,66.416 260.408,68.512 L260.408,72 L258.936,72 Z M263.24,68.96 C263.24,70.224 264.168,70.864 265.32,70.864 C266.248,70.864 266.76,70.464 267.048,70.224 L267.784,71.312 C266.92,71.92 266.232,72.112 265.32,72.112 C263.112,72.112 261.8,70.768 261.8,68.656 C261.8,66.576 263.176,65.2 265,65.2 C266.68,65.2 268.008,66.336 268.008,68.288 C268.008,68.592 267.976,68.96 267.976,68.96 L263.24,68.96 Z M265.032,66.384 C264.248,66.384 263.576,66.864 263.32,67.824 L266.68,67.824 C266.584,66.864 265.88,66.384 265.032,66.384 Z M273.144,72 L273.144,62.08 L278.328,62.08 L278.328,63.376 L274.744,63.376 L274.744,65.872 L277.368,65.872 L277.368,67.184 L274.744,67.184 L274.744,70.688 L279.608,70.688 L279.288,72 L273.144,72 Z M285.112,72 L285.112,68.528 C285.112,67.104 284.728,66.432 283.672,66.432 C282.6,66.432 281.928,67.392 281.928,68.608 L281.928,72 L280.488,72 L280.488,65.312 L281.928,65.312 L281.928,66.288 C282.328,65.616 283.08,65.216 283.912,65.216 C285.816,65.216 286.584,66.416 286.584,68.512 L286.584,72 L285.112,72 Z M291.672,72.08 L290.936,72.08 C289.272,72.08 288.712,71.296 288.712,69.488 L288.712,66.512 L287.544,66.512 L287.864,65.312 L288.712,65.312 L288.712,63.968 L290.168,63.648 L290.168,65.312 L291.832,65.312 L291.832,66.512 L290.168,66.512 L290.168,69.52 C290.168,70.768 290.472,70.96 291.96,70.848 L291.672,72.08 Z M295.624,69.28 L297.432,65.184 L297.576,65.184 L299.384,69.28 L301.128,65.312 L302.744,65.312 L299.448,72.128 L299.304,72.128 L297.512,68.064 L295.704,72.128 L295.56,72.128 L292.28,65.312 L293.88,65.312 L295.624,69.28 Z M305.288,63.28 C305.288,63.776 304.904,64.08 304.408,64.08 C303.928,64.08 303.544,63.776 303.544,63.264 C303.544,62.768 303.928,62.48 304.408,62.48 C304.904,62.48 305.288,62.768 305.288,63.28 Z M303.688,72 L303.688,65.312 L305.144,65.312 L305.144,72 L303.688,72 Z M310.2,72.112 C308.168,72.112 306.68,70.8 306.68,68.656 C306.68,66.48 308.168,65.184 310.2,65.184 C311.464,65.184 312.36,65.808 312.488,65.888 L312.184,67.168 C312.184,67.168 311.336,66.464 310.216,66.464 C309.032,66.464 308.104,67.232 308.104,68.64 C308.104,70.048 309,70.864 310.2,70.864 C311.24,70.864 311.96,70.256 312.056,70.176 L312.712,71.344 C311.832,71.904 311.016,72.112 310.2,72.112 Z M315.352,72 L313.912,72 L313.912,62.224 L315.352,61.936 L315.352,72 Z M315.496,68.112 L317.832,65.312 L319.672,65.312 L317.112,68.112 L320.408,72 L318.568,72 L315.496,68.112 Z M320.968,72 L320.968,62.224 L322.408,61.936 L322.408,72 L320.968,72 Z M325.56,65.312 L325.56,68.8 C325.56,70.224 325.816,70.88 326.952,70.88 C328.056,70.88 328.648,69.92 328.648,68.704 L328.648,65.312 L330.088,65.312 L330.088,72 L328.648,72 L328.648,71.024 C328.248,71.696 327.608,72.096 326.68,72.096 C324.792,72.096 324.088,70.912 324.088,68.816 L324.088,65.312 L325.56,65.312 Z M336.472,72 L336.472,68.528 C336.472,67.104 336.088,66.432 335.032,66.432 C333.96,66.432 333.288,67.392 333.288,68.608 L333.288,72 L331.848,72 L331.848,65.312 L333.288,65.312 L333.288,66.288 C333.688,65.616 334.44,65.216 335.272,65.216 C337.176,65.216 337.944,66.416 337.944,68.512 L337.944,72 L336.472,72 Z M342.456,74.512 C341.688,74.512 340.632,74.416 339.608,73.664 L340.408,72.592 C341.016,73.008 341.752,73.216 342.328,73.216 C343.16,73.216 344.248,73.104 344.248,71.216 L344.248,70.624 C343.864,71.024 343.288,71.44 342.328,71.44 C340.376,71.44 339.336,70.112 339.336,68.352 C339.336,66.608 340.536,65.216 342.648,65.216 C344.472,65.216 345.464,66.144 345.672,66.304 L345.672,70.992 C345.672,73.936 344.104,74.512 342.456,74.512 Z M340.808,68.4 C340.808,69.408 341.304,70.16 342.488,70.16 C343.56,70.16 344.248,69.296 344.248,67.856 L344.248,66.864 C344.104,66.752 343.624,66.48 342.712,66.48 C341.464,66.48 340.808,67.376 340.808,68.4 Z" id="InterneEntwicklung" fill="#262829" fill-rule="nonzero"></path>
            </g>
        </g>
    </g>
</svg>