<svg version="1.1" id="Layer_1" xmlns="http://www.w3.org/2000/svg" x="0" y="0" width="110px" viewBox="0 0 111.6 23.9" xml:space="preserve"><style>.st0{fill:#020202}</style><path class="st0" d="M63.1 11.6V.9.6c0-.2.1-.2.3-.3h9c2 0 3.9.3 5.7 1.2 3.6 1.8 5.8 4.6 6.5 8.6.6 3.7-.4 7-3 9.8-2.3 2.4-5.1 3.7-8.4 3.7-2.8.1-5.7 0-8.5 0h-.4c-.6 0-1.1-.4-1.2-1.1v-.4-10.5zm6.4.4v5.2c0 .2.1.2.2.2h3c2.9 0 5.3-2.3 5.4-5.1.2-3.1-2.3-5.6-5.3-5.7h-3.1c-.2 0-.3 0-.3.3.1 1.7.1 3.4.1 5.1zM99.6 23.9c-6.6 0-12-5.3-12-12C87.6 5.3 93 0 99.6 0c6.7 0 12.1 5.5 12 12.2-.1 6.6-5.5 11.8-12 11.7zM94.1 12c0 3 2.5 5.5 5.5 5.5s5.5-2.5 5.6-5.5c0-3-2.5-5.5-5.5-5.5-3.1 0-5.6 2.4-5.6 5.5zM41.1 13.5v9.6c0 .3-.1.4-.4.4h-5.8c-.3 0-.4-.1-.4-.4V1.2c0-.4.2-.8.5-.9.4-.2.8-.1 1.1.2 3.2 2.5 6.5 5 9.7 7.6.3.2.3.2.6 0 3.3-2.5 6.6-5 9.9-7.6.3-.3.7-.3 1-.1.4.1.6.5.6.9V23.4c0 .2-.1.3-.3.3h-5.8c-.3 0-.4-.1-.4-.4v-9.7c0-.1-.1-.2-.2-.3l-4.6-4.6-.1-.1c-.1-.1-.2-.1-.3 0l-1 1c-1.3 1.2-2.5 2.5-3.8 3.8-.2 0-.3 0-.3.1zM17.8 6.7v5.6c-.1 3.1-1.2 5.7-3.3 7.9-1.8 2-4.1 3.2-6.8 3.6-2.6.4-5.2 0-7.5-1.3-.3-.1-.3-.3-.1-.5 1-1.7 1.9-3.4 2.9-5 .1-.2.3-.3.5-.1 3.2 1.5 6.8-.3 7.6-3.7.1-.4.1-.7.1-1.1V.8c0-.4.1-.5.5-.5h5.7c.4 0 .4.1.4.4v6zM22.7 12V.8c0-.4.1-.5.5-.5h5.7c.4 0 .4.1.4.4v22.5c0 .3-.1.4-.4.4h-5.8c-.3 0-.4-.1-.4-.4V12z"/><path d="M41.1 13.5c0-.1.1-.2.1-.2L45 9.5c.3-.3.7-.6 1-1 .1-.1.2-.1.3 0l.1.1 4.6 4.6c.1.1.2.1.2.3-.1-.1-.2.1-.2.1l-4.5 4.5c-.3.3-.4.3-.7 0-1.5-1.5-3-3-4.6-4.5l-.1-.1z" fill="#7a7a7a"/></svg>