<?xml version="1.0" encoding="UTF-8"?>
<svg width="115px" height="25px" viewBox="0 0 115 25" version="1.1" xmlns="http://www.w3.org/2000/svg" xmlns:xlink="http://www.w3.org/1999/xlink">
    <!-- Generator: Sketch 56.3 (81716) - https://sketch.com -->
    <title>Jimdo Logo</title>
    <desc>Created with Sketch.</desc>
    <defs>
        <polygon id="path-1" points="0.0809466019 0.20038835 49.8387864 0.20038835 49.8387864 23.9673087 0.0809466019 23.9673087"></polygon>
        <polygon id="path-3" points="0.0118222222 0.20440396 5.84955556 0.20440396 5.84955556 23.9666851 0.0118222222 23.9666851"></polygon>
        <polygon id="path-5" points="-4.85232068e-05 0.207097385 21.3739873 0.207097385 21.3739873 24.7696901 -4.85232068e-05 24.7696901"></polygon>
        <polygon id="path-7" points="15 26 15 0 126 0 126 26"></polygon>
        <polygon id="path-9" points="0.1575 0.204356436 24.83375 0.204356436 24.83375 23.9666851 0.1575 23.9666851"></polygon>
    </defs>
    <g id="Page-1" stroke="none" stroke-width="1" fill="none" fill-rule="evenodd">
        <g id="Artboard-Copy-8" transform="translate(-115.000000, -521.000000)">
            <g id="Group" transform="translate(115.000000, 516.000000)">
                <g id="Jimdo-Logo" transform="translate(0.000000, 5.000000)">
                    <g id="Group-4" transform="translate(65.000000, 0.000000)">
                        <mask id="mask-2" fill="white">
                            <use xlink:href="#path-1"></use>
                        </mask>
                        <g id="Clip-2"></g>
                        <path d="M8.33385922,0.433351456 C9.00133495,0.433351456 10.0925971,0.464807767 10.7588592,0.503254369 C10.7588592,0.503254369 21.6833738,1.13261359 21.6833738,12.0838369 C21.6833738,23.0350602 10.7588592,23.6644194 10.7588592,23.6644194 C10.0925971,23.702866 9.00133495,23.7343223 8.33385922,23.7343223 L1.29453883,23.7343223 C0.627063107,23.7343223 0.0809466019,23.2100505 0.0809466019,22.5692738 L0.0809466019,1.5984 C0.0809466019,0.957623301 0.627063107,0.433351456 1.29453883,0.433351456 L8.33385922,0.433351456 Z" id="Fill-1" fill="#343637" mask="url(#mask-2)"></path>
                        <path d="M49.8387864,12.0838136 C49.8387864,18.6469981 44.2967961,23.9673087 37.4601456,23.9673087 C30.6234951,23.9673087 25.0815049,18.6469981 25.0815049,12.0838136 C25.0815049,5.52062913 30.6234951,0.200318447 37.4601456,0.200318447 C44.2967961,0.200318447 49.8387864,5.52062913 49.8387864,12.0838136" id="Fill-3" fill="#343637" mask="url(#mask-2)"></path>
                    </g>
                    <g id="Group-7" transform="translate(26.000000, 0.000000)">
                        <mask id="mask-4" fill="white">
                            <use xlink:href="#path-3"></use>
                        </mask>
                        <g id="Clip-6"></g>
                        <path d="M5.8496,22.872998 C5.8496,23.4744238 5.38937778,23.9667802 4.82671111,23.9667802 L1.03448889,23.9667802 C0.472044444,23.9667802 0.0118222222,23.4744238 0.0118222222,22.872998 L0.0118222222,1.29794851 C0.0118222222,0.696522772 0.472044444,0.20440396 1.03448889,0.20440396 L4.82671111,0.20440396 C5.38937778,0.20440396 5.8496,0.696522772 5.8496,1.29794851 L5.8496,22.872998 Z" id="Fill-5" fill="#343637" mask="url(#mask-4)"></path>
                    </g>
                    <g id="Group-13">
                        <g id="Group-10" transform="translate(0.000000, 0.240811)">
                            <mask id="mask-6" fill="white">
                                <use xlink:href="#path-5"></use>
                            </mask>
                            <g id="Clip-9"></g>
                            <path d="M1.21099367,14.2816524 C0.543799578,14.2816524 -0.00111603376,14.823477 -0.00014686387,15.485707 L0.000339662447,15.6523481 C0.000339662447,20.7358665 4.52731224,24.7696901 10.6858776,24.7696901 C17.9925021,24.7696901 21.3740844,20.354422 21.3740844,14.0408415 L21.3740844,1.41103155 C21.3740844,0.748801535 20.8281983,0.20697698 20.1610042,0.20697698 L6.26565612,0.20697698 C5.59846203,0.20697698 5.05257595,0.748801535 5.05257595,1.41103155 L5.05257595,5.10314447 C5.05257595,5.76537448 5.59846203,6.30719903 6.26565612,6.30719903 L13.7872384,6.30719903 C14.4544325,6.30719903 15.0003186,6.84902359 15.0003186,7.5112536 L15.0003186,14.4157841 C15.0003186,16.1000156 13.6254135,18.9899874 10.5645696,18.9899874 C8.69230169,18.9899874 6.95832489,17.5159838 6.45659494,15.7026776 L6.3607616,15.4218921 C6.14677426,14.7948205 5.42547679,14.2816524 4.7582827,14.2816524 L1.21099367,14.2816524 Z" id="Fill-8" fill="#343637" mask="url(#mask-6)"></path>
                        </g>
                        <mask id="mask-8" fill="white">
                            <use xlink:href="#path-7"></use>
                        </mask>
                        <g id="Clip-12"></g>
                        <path d="M59.1703165,24.0671208 C59.4752848,24.0671208 59.7508966,23.9406951 59.9515401,23.7410628 L37.8154958,0.367233178 C37.4569093,-0.0127664426 36.8816667,-0.105719455 36.502943,0.125218211 C36.1123312,0.363380204 36,0.673303849 36.0024262,1.0672705 L36,22.9774514 C36,23.5768298 36.4939662,24.0671208 37.0978376,24.0671208 L59.1703165,24.0671208 Z" id="Fill-11" fill="#1A1A1A" opacity="0.399999976" mask="url(#mask-8)"></path>
                    </g>
                    <g id="Group-16" transform="translate(36.000000, 0.000000)">
                        <mask id="mask-10" fill="white">
                            <use xlink:href="#path-9"></use>
                        </mask>
                        <g id="Clip-15"></g>
                        <path d="M0.157375,23.6407129 C0.363125,23.8410297 0.649125,23.9667327 0.965125,23.9667327 L23.709375,23.9667327 C24.327875,23.9667327 24.833875,23.4857822 24.833875,22.897901 L24.833875,1.20190099 C24.833875,0.723326733 24.513125,0.441980198 24.255125,0.30819802 C24.004125,0.178217822 23.438375,0.096 23.009125,0.531089109 L0.157375,23.6407129 Z" id="Fill-14" fill="#1A1A1A" mask="url(#mask-10)"></path>
                    </g>
                </g>
            </g>
        </g>
    </g>
</svg>