<?xml version="1.0" encoding="utf-8"?>
<!-- Generator: Adobe Illustrator 23.1.1, SVG Export Plug-In . SVG Version: 6.00 Build 0)  -->
<svg version="1.1" id="Layer_1" xmlns="http://www.w3.org/2000/svg" xmlns:xlink="http://www.w3.org/1999/xlink" x="0px" y="0px"
	 viewBox="0 0 111.6 23.9" style="enable-background:new 0 0 111.6 23.9;" xml:space="preserve">
<style type="text/css">
	.st0{fill:#020202;}
	.st1{fill:#7A7A7A;}
</style>
<g>
	<title>Jimdo Logo</title>
	<desc>Created with Sketch.</desc>
	<path class="st0" d="M63.1,11.6c0-3.6,0-7.1,0-10.7c0-0.1,0-0.2,0-0.3c0-0.2,0.1-0.2,0.3-0.3c0.1,0,0.1,0,0.2,0c2.9,0,5.9,0,8.8,0
		c2,0,3.9,0.3,5.7,1.2c3.6,1.8,5.8,4.6,6.5,8.6c0.6,3.7-0.4,7-3,9.8c-2.3,2.4-5.1,3.7-8.4,3.7c-2.8,0.1-5.7,0-8.5,0
		c-0.1,0-0.3,0-0.4,0c-0.6,0-1.1-0.4-1.2-1.1c0-0.1,0-0.2,0-0.4C63.1,18.7,63.1,15.1,63.1,11.6z M69.5,12c0,1.7,0,3.4,0,5.2
		c0,0.2,0.1,0.2,0.2,0.2c1,0,2,0,3,0c2.9,0,5.3-2.3,5.4-5.1c0.2-3.1-2.3-5.6-5.3-5.7c-1,0-2.1,0-3.1,0c-0.2,0-0.3,0-0.3,0.3
		C69.5,8.6,69.5,10.3,69.5,12z"/>
	<path class="st0" d="M99.6,23.9c-6.6,0-12-5.3-12-12C87.6,5.3,93,0,99.6,0c6.7,0,12.1,5.5,12,12.2C111.5,18.8,106.1,24,99.6,23.9z
		 M94.1,12c0,3,2.5,5.5,5.5,5.5s5.5-2.5,5.6-5.5c0-3-2.5-5.5-5.5-5.5C96.6,6.5,94.1,8.9,94.1,12z"/>
	<path class="st0" d="M41.1,13.5c0,1.9,0,3.9,0,5.8c0,1.3,0,2.6,0,3.8c0,0.3-0.1,0.4-0.4,0.4c-1.9,0-3.8,0-5.8,0
		c-0.3,0-0.4-0.1-0.4-0.4c0-7.3,0-14.6,0-21.9c0-0.4,0.2-0.8,0.5-0.9c0.4-0.2,0.8-0.1,1.1,0.2c3.2,2.5,6.5,5,9.7,7.6
		c0.3,0.2,0.3,0.2,0.6,0c3.3-2.5,6.6-5,9.9-7.6c0.3-0.3,0.7-0.3,1-0.1c0.4,0.1,0.6,0.5,0.6,0.9c0,0.1,0,0.1,0,0.2
		c0,7.2,0,14.4,0,21.7c0,0.1,0,0.2,0,0.2c0,0.2-0.1,0.3-0.3,0.3c-0.8,0-1.5,0-2.3,0c-1.2,0-2.4,0-3.5,0c-0.3,0-0.4-0.1-0.4-0.4
		c0-3.2,0-6.5,0-9.7c0-0.1-0.1-0.2-0.2-0.3c-1.5-1.5-3.1-3.1-4.6-4.6l-0.1-0.1c-0.1-0.1-0.2-0.1-0.3,0c-0.3,0.3-0.7,0.7-1,1
		c-1.3,1.2-2.5,2.5-3.8,3.8C41.2,13.4,41.1,13.4,41.1,13.5z"/>
	<path class="st0" d="M17.8,6.7c0,1.9,0,3.7,0,5.6c-0.1,3.1-1.2,5.7-3.3,7.9c-1.8,2-4.1,3.2-6.8,3.6c-2.6,0.4-5.2,0-7.5-1.3
		c-0.3-0.1-0.3-0.3-0.1-0.5c1-1.7,1.9-3.4,2.9-5c0.1-0.2,0.3-0.3,0.5-0.1c3.2,1.5,6.8-0.3,7.6-3.7c0.1-0.4,0.1-0.7,0.1-1.1
		c0-3.8,0-7.5,0-11.3c0-0.4,0.1-0.5,0.5-0.5c1.9,0,3.8,0,5.7,0c0.4,0,0.4,0.1,0.4,0.4C17.8,2.7,17.8,4.7,17.8,6.7L17.8,6.7z"/>
	<path class="st0" d="M22.7,12c0-3.7,0-7.5,0-11.2c0-0.4,0.1-0.5,0.5-0.5c1.9,0,3.8,0,5.7,0c0.4,0,0.4,0.1,0.4,0.4
		c0,7.5,0,15,0,22.5c0,0.3-0.1,0.4-0.4,0.4c-1.9,0-3.8,0-5.8,0c-0.3,0-0.4-0.1-0.4-0.4C22.7,19.5,22.7,15.7,22.7,12z"/>
	<path class="st1" d="M41.1,13.5c0-0.1,0.1-0.2,0.1-0.2c1.3-1.3,2.5-2.5,3.8-3.8c0.3-0.3,0.7-0.6,1-1c0.1-0.1,0.2-0.1,0.3,0l0.1,0.1
		c1.5,1.5,3.1,3.1,4.6,4.6c0.1,0.1,0.2,0.1,0.2,0.3c-0.1-0.1-0.2,0.1-0.2,0.1c-1.5,1.5-3,3-4.5,4.5c-0.3,0.3-0.4,0.3-0.7,0
		c-1.5-1.5-3-3-4.6-4.5C41.2,13.6,41.2,13.6,41.1,13.5z"/>
</g>
</svg>
