<?xml version="1.0" encoding="UTF-8"?>
<svg width="167px" height="19px" viewBox="0 0 167 19" version="1.1" xmlns="http://www.w3.org/2000/svg" xmlns:xlink="http://www.w3.org/1999/xlink">
    <!-- Generator: Sketch 56.3 (81716) - https://sketch.com -->
    <title>sumcumo</title>
    <desc>Created with Sketch.</desc>
    <g id="Page-1" stroke="none" stroke-width="1" fill="none" fill-rule="evenodd">
        <g id="Artboard-Copy-8" transform="translate(-743.000000, -525.000000)" fill="#000000" fill-rule="nonzero">
            <g id="Group" transform="translate(115.000000, 516.000000)">
                <g id="sumcumo" transform="translate(628.000000, 9.000000)">
                    <path d="M66.8255939,0 L66.8255939,19 L63.1144828,19 L63.1144828,3.8 L55.6794636,3.8 L55.6794636,19 L51.9683525,19 L51.9683525,3.8 L44.5461303,3.8 L44.5461303,19 L40.8350192,19 L40.8350192,0 L66.8255939,0 Z M0,3.8 L0,11.4 L11.1333333,11.4 L11.1333333,15.2 L0,15.2 L0,19 L14.8444444,19 L14.8444444,7.6 L3.71111111,7.6 L3.71111111,3.8 L0,3.8 Z M3.71111111,3.8 L3.71111111,0 L14.8444444,0 L14.8444444,3.8 L3.71111111,3.8 Z M22.2666667,0 L18.5555556,0 L18.5555556,15.2 L22.2666667,15.2 L22.2666667,0 Z M37.1111111,3.8 L37.1111111,19 L22.2666667,19 L22.2666667,15.2 L33.4,15.2 L33.4,3.8 L37.1111111,3.8 Z M74.2222222,15.2 L70.5111111,15.2 L70.5111111,19 L74.2222222,19 L74.2222222,15.2 Z M81.6956322,19 L81.6956322,15.2 L92.8289655,15.2 L92.8289655,19 L81.6956322,19 Z M81.6956322,3.8 L92.8289655,3.8 L92.8289655,0 L78.0613027,0 L78.0613027,15.2 L81.7852107,15.2 L81.6956322,3.8 Z M118.806743,3.8 L122.517854,3.8 L122.517854,19 L118.793946,19 L118.806743,3.8 Z M122.505057,0 L122.505057,3.8 L129.92728,3.8 L129.92728,15.2 L133.638391,15.2 L133.638391,3.8 L141.060613,3.8 L141.060613,19 L144.771724,19 L144.771724,0 L122.505057,0 Z M111.333333,0 L111.333333,15.2 L100.2,15.2 L100.2,3.8 L96.5144828,3.8 L96.5144828,19 L115.082835,19 L115.082835,0 L111.333333,0 Z M163.301686,3.8 L163.301686,15.2 L152.168352,15.2 L152.168352,3.8 L163.301686,3.8 L163.301686,0 L148.444444,0 L148.444444,19 L167,19 L167,3.8 L163.301686,3.8 Z" id="Shape"></path>
                </g>
            </g>
        </g>
    </g>
</svg>