<?xml version="1.0" encoding="utf-8"?>
<!-- Generator: Adobe Illustrator 23.1.1, SVG Export Plug-In . SVG Version: 6.00 Build 0)  -->
<svg version="1.1" id="Layer_1" xmlns="http://www.w3.org/2000/svg" xmlns:xlink="http://www.w3.org/1999/xlink" x="0px" y="0px"
	 viewBox="0 0 337 128" style="enable-background:new 0 0 337 128;" xml:space="preserve">
<style type="text/css">
	.st0{filter:url(#AI_GaussianBlur_7);}
	.st1{fill:url(#SVGID_1_);}
</style>
<filter  id="AI_GaussianBlur_7">
	<feGaussianBlur  stdDeviation="7"></feGaussianBlur>
</filter>
<g class="st0">
	<linearGradient id="SVGID_1_" gradientUnits="userSpaceOnUse" x1="28.0789" y1="63.8243" x2="308.8677" y2="63.8243">
		<stop  offset="0" style="stop-color:#20FFF6;stop-opacity:5.000000e-02"/>
		<stop  offset="0.9706" style="stop-color:#017F9D;stop-opacity:0.1"/>
		<stop  offset="1" style="stop-color:#007B9A;stop-opacity:0.2"/>
	</linearGradient>
	<path class="st1" d="M34.9,74.3L59.3,105c8.1,10.2,21.7,14.4,34.2,10.5l30-9.4c3.3-1,6.5-2.6,9.3-4.7l12-8.8
		c11.8-8.7,28-8.1,39.2,1.3l5.8,4.9c4.8,4.1,10.7,6.6,17,7.3l66.9,7.3c16.5,1.8,31.6-9.5,34.6-25.8l0,0c2.4-13.3-3.8-26.6-15.6-33.2
		l-32.3-18.3c-1-0.6-2-1.2-3-1.9L233,16.7c-8.8-6.4-20.4-7.8-30.5-3.7l-33.7,13.7c-2.9,1.2-5.9,1.9-9,2.2l-45.4,4.2
		c-8.1,0.7-16.1-1.6-22.5-6.6l-4.7-3.7c-9.2-7.2-21.7-8.8-32.5-4l-8,3.6c-11.4,5.1-18.7,16.4-18.7,28.9v3.3
		C28.1,61.8,30.5,68.7,34.9,74.3z"/>
</g>
</svg>
